<svg id="svg" version="1.1" xmlns="http://www.w3.org/2000/svg" xmlns:xlink="http://www.w3.org/1999/xlink" width="400" height="400" viewBox="0, 0, 400,400"><g id="svgg"><path id="path0" d="M0.000 200.000 L 0.000 400.000 200.000 400.000 L 400.000 400.000 400.000 200.000 L 400.000 0.000 200.000 0.000 L 0.000 0.000 0.000 200.000 M391.563 199.844 L 391.563 391.250 200.156 391.250 L 8.750 391.250 8.750 199.844 L 8.750 8.438 200.156 8.438 L 391.563 8.438 391.563 199.844 M43.854 158.686 C 37.914 160.803,36.719 163.406,36.719 174.219 L 36.719 182.344 37.594 184.126 C 41.745 192.580,54.602 192.307,58.323 183.686 C 59.503 180.953,59.491 180.938,56.281 180.938 L 53.499 180.938 52.880 181.988 C 50.486 186.044,44.650 185.832,42.709 181.618 C 41.895 179.850,41.539 170.730,42.184 168.163 C 43.585 162.589,51.000 161.745,53.142 166.916 C 53.512 167.809,53.524 167.813,56.329 167.813 L 59.144 167.813 58.963 166.693 C 57.950 160.450,50.292 156.392,43.854 158.686 M68.229 158.686 C 62.289 160.803,61.094 163.406,61.094 174.219 L 61.094 182.344 61.969 184.126 C 65.814 191.955,77.889 192.425,82.180 184.913 C 84.137 181.486,84.462 168.341,82.685 164.458 C 80.331 159.312,73.794 156.702,68.229 158.686 M124.219 158.562 C 119.753 159.974,117.969 162.482,117.969 167.344 C 117.969 173.161,120.504 175.617,127.656 176.729 C 133.716 177.671,135.526 179.628,133.465 183.008 C 131.811 185.720,124.508 185.520,120.758 182.660 C 119.419 181.638,119.464 181.622,117.504 183.867 L 115.901 185.703 116.580 186.425 C 119.654 189.697,128.779 191.347,133.811 189.542 C 137.395 188.256,139.457 185.089,139.457 180.871 C 139.457 175.427,136.424 172.497,129.837 171.581 C 125.144 170.929,123.124 169.673,123.126 167.411 C 123.130 163.724,127.695 162.359,132.813 164.514 C 136.084 165.892,135.926 165.924,137.412 163.565 C 138.960 161.107,139.018 161.309,136.385 160.013 C 132.722 158.210,127.356 157.570,124.219 158.562 M266.354 158.686 C 260.414 160.803,259.219 163.406,259.219 174.219 L 259.219 182.344 260.094 184.126 C 263.939 191.955,276.014 192.425,280.305 184.913 C 282.262 181.486,282.587 168.341,280.810 164.458 C 278.456 159.312,271.919 156.702,266.354 158.686 M88.750 174.219 L 88.750 190.000 91.402 190.000 L 94.054 190.000 94.137 179.412 L 94.219 168.823 100.938 179.408 L 107.656 189.993 110.234 189.997 L 112.813 190.000 112.813 174.219 L 112.813 158.438 110.160 158.438 L 107.508 158.438 107.426 168.969 L 107.344 179.500 100.625 168.970 L 93.906 158.439 91.328 158.438 L 88.750 158.438 88.750 174.219 M140.938 160.781 L 140.938 163.125 145.156 163.125 L 149.375 163.125 149.375 176.563 L 149.375 190.000 152.031 190.000 L 154.688 190.000 154.688 176.571 L 154.688 163.143 158.984 163.056 L 163.281 162.969 163.373 160.703 L 163.465 158.438 152.201 158.438 L 140.938 158.438 140.938 160.781 M165.938 174.219 L 165.938 190.000 168.594 190.000 L 171.250 190.000 171.250 174.219 L 171.250 158.438 168.594 158.438 L 165.938 158.438 165.938 174.219 M174.063 160.781 L 174.063 163.125 178.281 163.125 L 182.500 163.125 182.500 176.563 L 182.500 190.000 185.156 190.000 L 187.813 190.000 187.813 176.571 L 187.813 163.143 192.109 163.056 L 196.406 162.969 196.498 160.703 L 196.590 158.438 185.326 158.438 L 174.063 158.438 174.063 160.781 M198.492 170.234 L 198.594 182.031 199.495 183.984 C 203.395 192.428,216.314 192.477,220.283 184.063 L 221.094 182.344 221.186 170.391 L 221.278 158.438 218.608 158.438 L 215.938 158.438 215.938 169.229 C 215.938 178.262,215.859 180.209,215.454 181.178 C 213.439 186.000,207.041 186.319,204.576 181.719 C 203.934 180.520,203.902 180.017,203.807 169.453 L 203.707 158.438 201.049 158.438 L 198.391 158.438 198.492 170.234 M223.750 160.781 L 223.750 163.125 227.969 163.125 L 232.188 163.125 232.188 176.563 L 232.188 190.000 234.844 190.000 L 237.500 190.000 237.500 176.571 L 237.500 163.143 241.797 163.056 L 246.094 162.969 246.186 160.703 L 246.277 158.438 235.014 158.438 L 223.750 158.438 223.750 160.781 M248.750 174.219 L 248.750 190.000 251.406 190.000 L 254.063 190.000 254.063 174.219 L 254.063 158.438 251.406 158.438 L 248.750 158.438 248.750 174.219 M286.875 174.219 L 286.875 190.000 289.527 190.000 L 292.179 190.000 292.262 179.412 L 292.344 168.823 299.063 179.408 L 305.781 189.993 308.359 189.997 L 310.938 190.000 310.938 174.219 L 310.938 158.438 308.285 158.438 L 305.633 158.438 305.551 168.969 L 305.469 179.500 298.750 168.970 L 292.031 158.439 289.453 158.438 L 286.875 158.438 286.875 174.219 M324.897 158.672 C 324.589 159.190,313.750 189.296,313.750 189.635 C 313.750 189.885,314.609 190.000,316.485 190.000 L 319.219 190.000 320.427 186.563 L 321.634 183.125 327.322 183.125 L 333.011 183.125 333.574 184.922 C 333.883 185.910,334.411 187.457,334.747 188.359 L 335.357 190.000 338.147 190.000 C 339.682 190.000,340.938 189.915,340.938 189.810 C 340.938 189.706,338.529 182.991,335.585 174.889 C 332.641 166.786,330.096 159.770,329.929 159.297 C 329.628 158.443,325.350 157.912,324.897 158.672 M343.750 174.219 L 343.750 190.000 354.063 190.000 L 364.375 190.000 364.375 187.500 L 364.375 185.000 356.719 185.000 L 349.063 185.000 349.063 171.719 L 349.063 158.438 346.406 158.438 L 343.750 158.438 343.750 174.219 M75.559 164.450 C 78.092 166.127,79.220 172.482,78.174 179.193 C 77.191 185.504,69.635 187.157,67.084 181.618 C 66.270 179.850,65.914 170.730,66.559 168.163 C 67.610 163.982,72.070 162.142,75.559 164.450 M273.684 164.450 C 276.217 166.127,277.345 172.482,276.299 179.193 C 275.316 185.504,267.760 187.157,265.209 181.618 C 264.395 179.850,264.039 170.730,264.684 168.163 C 265.735 163.982,270.195 162.142,273.684 164.450 M331.250 178.197 C 331.250 178.329,329.439 178.438,327.226 178.438 L 323.201 178.438 325.027 172.755 C 326.031 169.629,326.944 166.852,327.056 166.583 C 327.224 166.179,331.250 177.329,331.250 178.197 M133.229 209.936 C 127.289 212.053,126.094 214.656,126.094 225.469 L 126.094 233.594 126.969 235.376 C 130.814 243.205,142.889 243.675,147.180 236.163 C 149.137 232.736,149.462 219.591,147.685 215.708 C 145.331 210.562,138.794 207.952,133.229 209.936 M243.541 209.936 C 237.602 212.053,236.406 214.656,236.406 225.469 L 236.406 233.594 237.281 235.376 C 241.433 243.830,254.289 243.557,258.011 234.936 C 259.190 232.203,259.179 232.188,255.968 232.188 L 253.187 232.188 252.567 233.238 C 250.174 237.294,244.338 237.082,242.396 232.868 C 241.582 231.100,241.226 221.980,241.872 219.413 C 243.273 213.839,250.687 212.995,252.829 218.166 C 253.199 219.059,253.211 219.063,256.016 219.063 L 258.832 219.063 258.650 217.943 C 257.637 211.700,249.979 207.642,243.541 209.936 M93.750 225.469 L 93.750 241.250 96.406 241.250 L 99.063 241.250 99.071 232.109 L 99.080 222.969 102.118 229.921 L 105.156 236.874 107.384 236.875 L 109.612 236.875 112.540 230.163 L 115.469 223.450 115.552 232.350 L 115.635 241.250 118.286 241.250 L 120.938 241.250 120.938 225.456 L 120.938 209.662 118.395 209.753 L 115.853 209.844 111.774 219.297 C 109.531 224.496,107.600 228.750,107.484 228.750 C 107.367 228.750,105.390 224.461,103.089 219.219 L 98.906 209.688 96.328 209.688 L 93.750 209.688 93.750 225.469 M153.750 225.469 L 153.750 241.250 156.402 241.250 L 159.054 241.250 159.137 230.662 L 159.219 220.073 165.938 230.658 L 172.656 241.243 175.234 241.247 L 177.813 241.250 177.813 225.469 L 177.813 209.688 175.160 209.688 L 172.508 209.688 172.426 220.219 L 172.344 230.750 165.625 220.220 L 158.906 209.689 156.328 209.688 L 153.750 209.688 153.750 225.469 M191.772 209.922 C 191.464 210.440,180.625 240.546,180.625 240.885 C 180.625 241.135,181.484 241.250,183.360 241.250 L 186.094 241.250 187.302 237.813 L 188.509 234.375 194.197 234.375 L 199.886 234.375 200.449 236.172 C 200.758 237.160,201.286 238.707,201.622 239.609 L 202.232 241.250 205.022 241.250 C 206.557 241.250,207.813 241.165,207.813 241.060 C 207.813 240.956,205.404 234.241,202.460 226.139 C 199.516 218.036,196.971 211.020,196.804 210.547 C 196.503 209.693,192.225 209.162,191.772 209.922 M210.313 225.450 L 210.313 241.250 212.969 241.250 L 215.625 241.250 215.625 234.676 L 215.625 228.102 218.457 228.191 L 221.289 228.281 224.375 234.688 L 227.462 241.094 230.606 241.183 C 234.427 241.291,234.460 242.030,230.284 234.064 C 228.378 230.428,226.866 227.424,226.925 227.390 C 234.089 223.183,234.697 214.436,228.080 210.771 L 226.406 209.844 218.359 209.746 L 210.313 209.649 210.313 225.450 M261.563 225.469 L 261.563 241.250 264.219 241.250 L 266.875 241.250 266.875 234.531 L 266.875 227.813 272.813 227.813 L 278.750 227.813 278.750 234.531 L 278.750 241.250 281.406 241.250 L 284.063 241.250 284.063 225.469 L 284.063 209.688 281.406 209.688 L 278.750 209.688 278.750 216.250 L 278.750 222.813 272.813 222.813 L 266.875 222.813 266.875 216.250 L 266.875 209.688 264.219 209.688 L 261.563 209.688 261.563 225.469 M290.520 218.672 L 295.156 227.656 295.313 234.375 L 295.469 241.094 298.047 241.185 L 300.625 241.275 300.625 234.724 L 300.625 228.172 305.311 219.008 C 307.888 213.968,309.997 209.809,309.998 209.766 C 309.999 209.723,308.699 209.689,307.109 209.691 L 304.219 209.694 301.116 216.250 L 298.013 222.807 296.100 218.825 C 295.048 216.635,293.645 213.684,292.982 212.266 L 291.776 209.688 288.830 209.688 L 285.884 209.688 290.520 218.672 M225.317 214.948 C 227.505 216.100,228.094 219.099,226.558 221.257 C 225.448 222.815,224.309 223.125,219.698 223.125 L 215.625 223.125 215.625 218.750 L 215.625 214.375 219.927 214.375 C 223.495 214.375,224.414 214.473,225.317 214.948 M140.559 215.700 C 143.092 217.377,144.220 223.732,143.174 230.443 C 142.191 236.754,134.635 238.407,132.084 232.868 C 131.270 231.100,130.914 221.980,131.559 219.413 C 132.610 215.232,137.070 213.392,140.559 215.700 M198.125 229.447 C 198.125 229.579,196.314 229.688,194.101 229.688 L 190.076 229.688 191.902 224.005 C 192.906 220.879,193.819 218.102,193.931 217.833 C 194.099 217.429,198.125 228.579,198.125 229.447 " stroke="none" fill="#000000" fill-rule="evenodd"></path></g></svg>
