<svg id="svg" version="1.1" xmlns="http://www.w3.org/2000/svg" xmlns:xlink="http://www.w3.org/1999/xlink" width="400" height="400" viewBox="0, 0, 400,400"><g id="svgg"><path id="path0" d="M201.742 57.038 C 201.410 57.289,201.215 57.569,201.306 57.661 C 201.398 57.752,201.651 57.613,201.869 57.351 C 202.418 56.690,202.927 56.756,203.623 57.578 C 204.218 58.281,204.218 58.281,203.569 57.734 C 202.777 57.067,202.381 57.047,201.883 57.646 C 201.674 57.899,201.358 58.074,201.181 58.037 C 201.004 57.999,200.788 58.164,200.702 58.403 C 200.615 58.642,200.668 58.761,200.819 58.667 C 200.970 58.574,201.030 59.152,200.952 59.952 L 200.811 61.406 200.606 60.156 C 200.418 59.008,200.398 58.987,200.357 59.893 C 200.332 60.435,199.891 61.820,199.375 62.969 C 198.314 65.334,198.288 65.435,198.828 65.125 C 199.055 64.994,199.110 65.019,198.958 65.184 C 198.815 65.341,198.546 65.469,198.359 65.469 C 198.173 65.469,197.956 65.664,197.876 65.903 C 197.777 66.200,197.868 66.258,198.163 66.087 C 198.417 65.940,198.487 65.954,198.333 66.122 C 198.190 66.278,197.921 66.406,197.734 66.406 C 197.548 66.406,197.331 66.602,197.251 66.840 C 197.152 67.137,197.243 67.196,197.538 67.025 C 197.792 66.877,197.862 66.891,197.708 67.059 C 197.565 67.216,197.354 67.345,197.240 67.346 C 196.806 67.352,194.079 70.539,194.300 70.782 C 194.427 70.923,194.361 70.940,194.153 70.820 C 193.411 70.395,191.574 74.903,191.567 77.165 C 191.560 79.274,192.996 83.073,193.733 82.894 C 193.902 82.853,193.968 83.007,193.881 83.235 C 193.793 83.463,193.966 83.848,194.265 84.091 C 194.736 84.474,194.771 84.471,194.528 84.068 C 194.374 83.813,195.050 84.297,196.030 85.143 C 197.678 86.566,198.258 87.187,197.500 86.719 C 197.322 86.609,197.188 86.878,197.188 87.344 C 197.188 87.912,197.307 88.092,197.578 87.933 C 198.725 87.263,196.532 89.220,195.258 90.004 C 193.175 91.285,193.353 90.898,195.469 89.545 C 196.414 88.940,197.188 88.379,197.188 88.298 C 197.188 87.907,193.710 90.365,191.967 91.989 C 190.199 93.637,189.181 95.094,190.547 94.023 C 191.040 93.636,191.053 93.646,190.673 94.131 C 190.442 94.426,190.111 94.637,189.938 94.599 C 189.623 94.531,188.076 97.319,187.657 98.711 C 187.483 99.287,187.528 99.397,187.857 99.204 C 188.090 99.067,188.013 99.260,187.686 99.634 C 186.976 100.443,186.615 100.547,187.227 99.766 C 187.620 99.265,187.608 99.257,187.087 99.667 C 185.951 100.559,185.313 102.363,185.313 104.675 L 185.313 106.875 181.172 106.872 C 177.229 106.869,174.044 107.109,168.125 107.855 C 162.678 108.542,161.346 108.739,158.906 109.217 C 157.531 109.486,155.773 109.825,155.000 109.970 C 154.227 110.114,152.891 110.406,152.031 110.617 C 151.172 110.828,149.906 111.137,149.219 111.303 C 148.531 111.470,147.336 111.800,146.563 112.038 C 145.789 112.275,144.805 112.528,144.375 112.598 L 143.594 112.727 144.375 112.771 C 144.805 112.796,145.789 112.614,146.563 112.367 C 147.336 112.120,148.531 111.782,149.219 111.616 C 149.906 111.449,151.172 111.141,152.031 110.929 C 152.891 110.718,154.227 110.427,155.000 110.282 C 155.773 110.137,157.531 109.798,158.906 109.529 C 161.346 109.051,162.678 108.854,168.125 108.168 C 174.282 107.392,177.281 107.185,181.563 107.241 L 186.094 107.300 180.469 107.522 C 174.456 107.759,167.319 108.319,166.882 108.589 C 166.736 108.679,165.444 108.888,164.012 109.052 C 162.579 109.216,160.281 109.571,158.906 109.841 C 157.531 110.110,155.773 110.450,155.000 110.595 C 154.227 110.739,152.891 111.031,152.031 111.242 C 151.172 111.453,149.906 111.764,149.219 111.933 C 148.531 112.101,147.266 112.430,146.406 112.663 C 145.547 112.896,144.211 113.241,143.438 113.428 C 140.023 114.257,123.414 119.981,119.844 121.560 C 119.111 121.884,115.144 123.171,113.125 123.739 C 112.352 123.957,111.297 124.269,110.781 124.433 C 110.266 124.597,109.211 124.857,108.438 125.012 C 99.860 126.727,97.464 126.938,96.388 126.077 C 95.802 125.607,95.804 125.602,96.464 125.920 C 98.272 126.794,104.471 125.858,113.281 123.382 C 115.157 122.855,119.133 121.561,119.844 121.247 C 120.442 120.983,122.148 120.306,124.844 119.265 C 125.531 119.000,125.925 118.775,125.718 118.766 C 125.511 118.757,125.019 118.877,124.624 119.033 C 124.229 119.189,123.133 119.619,122.188 119.988 C 121.242 120.357,120.188 120.783,119.844 120.935 C 119.111 121.259,115.144 122.546,113.125 123.114 C 112.352 123.332,111.297 123.644,110.781 123.808 C 110.266 123.972,109.211 124.223,108.438 124.367 C 107.664 124.510,105.555 124.923,103.751 125.283 C 99.382 126.155,97.166 126.153,96.377 125.276 C 94.008 122.644,87.134 120.817,86.071 122.537 C 85.977 122.688,85.676 122.813,85.401 122.813 C 84.785 122.812,81.563 125.207,81.563 125.664 C 81.563 125.846,82.281 125.350,83.159 124.560 C 84.037 123.771,85.013 123.125,85.328 123.125 C 85.643 123.125,85.977 123.001,86.071 122.849 C 86.993 121.358,95.938 123.477,95.938 125.186 C 95.938 125.272,95.316 124.915,94.557 124.393 C 92.176 122.755,86.804 121.975,86.071 123.162 C 85.977 123.313,85.636 123.438,85.312 123.438 C 84.988 123.438,83.836 124.246,82.752 125.234 C 81.668 126.223,80.990 126.750,81.245 126.406 C 81.699 125.793,81.695 125.792,81.039 126.350 C 78.455 128.550,78.351 135.836,80.875 137.881 C 81.255 138.188,81.315 138.190,81.135 137.891 C 80.793 137.321,81.103 137.413,81.602 138.029 C 81.966 138.477,81.966 138.518,81.600 138.298 C 81.300 138.117,81.217 138.170,81.327 138.472 C 81.413 138.711,81.653 138.868,81.859 138.820 C 82.065 138.773,82.158 138.858,82.064 139.009 C 81.832 139.384,83.264 140.690,83.581 140.393 C 83.721 140.263,83.656 140.508,83.438 140.938 C 82.874 142.046,82.701 142.155,82.945 141.250 C 83.125 140.580,83.105 140.549,82.801 141.035 C 82.607 141.346,82.525 141.801,82.619 142.046 C 82.713 142.292,82.655 142.459,82.491 142.418 C 82.105 142.322,79.645 147.532,79.834 148.043 C 79.913 148.256,79.815 148.397,79.617 148.356 C 79.418 148.315,79.199 148.544,79.129 148.865 C 79.041 149.270,79.122 149.375,79.393 149.207 C 79.648 149.050,79.705 149.093,79.558 149.332 C 79.434 149.533,79.209 149.622,79.059 149.529 C 78.909 149.436,78.496 150.014,78.143 150.814 C 77.403 152.486,77.339 152.946,77.891 152.615 C 78.156 152.455,78.144 152.549,77.852 152.909 C 77.366 153.508,77.035 153.624,77.374 153.077 C 77.512 152.853,77.459 152.801,77.236 152.939 C 76.737 153.247,76.766 154.162,77.266 153.875 C 77.493 153.744,77.547 153.769,77.396 153.934 C 77.253 154.091,76.971 154.221,76.771 154.223 C 76.570 154.225,76.411 154.602,76.417 155.060 C 76.423 155.518,76.300 155.867,76.143 155.837 C 75.987 155.806,75.788 155.977,75.702 156.215 C 75.596 156.507,75.685 156.575,75.975 156.423 C 76.212 156.298,76.055 156.488,75.625 156.846 C 74.962 157.397,74.915 157.542,75.313 157.805 C 75.725 158.078,75.723 158.116,75.294 158.120 C 75.010 158.123,74.392 158.959,73.810 160.130 C 72.746 162.267,72.568 162.996,73.203 162.615 C 73.469 162.455,73.456 162.549,73.165 162.909 C 72.679 163.508,72.348 163.624,72.686 163.077 C 72.817 162.864,72.772 162.800,72.577 162.921 C 72.395 163.034,71.793 164.216,71.240 165.547 C 70.687 166.879,69.549 169.337,68.711 171.010 C 67.144 174.138,66.900 174.890,67.578 174.500 C 67.805 174.369,67.860 174.394,67.708 174.559 C 67.565 174.716,67.284 174.844,67.083 174.844 C 66.883 174.844,66.672 175.176,66.614 175.582 C 66.540 176.105,66.623 176.250,66.897 176.080 C 67.148 175.925,67.205 175.969,67.058 176.207 C 66.934 176.408,66.709 176.497,66.559 176.404 C 66.208 176.187,63.682 181.559,63.886 182.091 C 63.971 182.312,63.878 182.459,63.679 182.418 C 63.481 182.377,63.267 182.625,63.205 182.969 C 63.109 183.494,63.148 183.519,63.444 183.125 C 63.758 182.708,63.783 182.708,63.670 183.125 C 63.599 183.383,63.344 183.594,63.103 183.594 C 62.862 183.594,62.614 183.856,62.552 184.178 C 62.472 184.595,62.560 184.692,62.861 184.518 C 63.108 184.375,63.174 184.392,63.021 184.559 C 62.878 184.716,62.596 184.844,62.396 184.844 C 62.195 184.844,61.984 185.176,61.927 185.582 C 61.853 186.105,61.935 186.250,62.210 186.080 C 62.461 185.925,62.517 185.969,62.370 186.207 C 62.246 186.408,62.017 186.494,61.862 186.398 C 61.707 186.303,61.166 187.139,60.658 188.258 C 59.418 190.994,59.200 191.707,59.702 191.397 C 59.960 191.238,60.019 191.280,59.870 191.519 C 59.746 191.721,59.515 191.805,59.357 191.707 C 59.199 191.610,58.733 192.275,58.322 193.187 C 57.912 194.098,57.066 195.917,56.444 197.230 C 55.270 199.705,55.056 200.508,55.673 200.126 C 55.899 199.987,55.949 200.041,55.808 200.269 C 55.684 200.471,55.466 200.563,55.324 200.476 C 55.182 200.388,54.980 200.538,54.876 200.809 C 54.606 201.515,54.640 201.629,55.048 201.376 C 55.274 201.237,55.324 201.291,55.183 201.519 C 55.059 201.721,54.853 201.821,54.725 201.742 C 54.490 201.597,52.188 205.991,52.188 206.586 C 52.188 206.765,52.350 206.812,52.548 206.689 C 52.774 206.550,52.824 206.603,52.683 206.832 C 52.559 207.033,52.330 207.119,52.175 207.023 C 52.020 206.928,51.467 207.789,50.946 208.937 C 49.926 211.188,49.797 211.725,50.361 211.376 C 50.586 211.237,50.637 211.291,50.495 211.519 C 50.371 211.721,50.145 211.808,49.992 211.714 C 49.744 211.560,47.867 215.227,47.333 216.909 C 47.171 217.419,47.222 217.520,47.545 217.333 C 47.794 217.188,47.862 217.204,47.708 217.372 C 47.565 217.528,47.286 217.656,47.088 217.656 C 46.889 217.656,46.677 217.919,46.615 218.240 C 46.537 218.643,46.624 218.749,46.893 218.582 C 47.148 218.425,47.205 218.468,47.058 218.707 C 46.934 218.908,46.726 219.007,46.596 218.927 C 46.356 218.779,45.000 221.308,45.000 221.902 C 45.000 222.079,45.162 222.124,45.361 222.001 C 45.586 221.862,45.637 221.916,45.495 222.144 C 45.371 222.346,45.138 222.429,44.978 222.330 C 44.818 222.231,44.562 222.475,44.410 222.872 C 44.259 223.269,43.410 225.132,42.525 227.012 C 41.640 228.891,40.989 230.621,41.079 230.856 C 41.169 231.091,41.119 231.206,40.967 231.112 C 40.815 231.018,40.605 231.163,40.501 231.434 C 40.231 232.140,40.265 232.254,40.673 232.001 C 40.899 231.862,40.949 231.916,40.808 232.144 C 40.684 232.346,40.448 232.427,40.284 232.326 C 40.121 232.225,39.764 232.680,39.492 233.337 C 38.848 234.892,37.915 236.962,36.991 238.887 C 36.157 240.623,36.072 241.077,36.641 240.750 C 36.868 240.619,36.922 240.644,36.771 240.809 C 36.628 240.966,36.357 241.094,36.169 241.094 C 35.981 241.094,35.630 241.577,35.389 242.168 C 35.020 243.072,35.019 243.196,35.380 242.950 C 35.617 242.788,35.557 242.891,35.247 243.177 C 34.210 244.135,31.695 250.029,32.548 249.501 C 32.774 249.362,32.824 249.416,32.683 249.644 C 32.559 249.846,32.333 249.934,32.182 249.840 C 32.030 249.747,31.759 249.946,31.578 250.283 C 31.134 251.114,31.164 251.649,31.641 251.375 C 31.868 251.244,31.922 251.269,31.771 251.434 C 31.628 251.591,31.348 251.719,31.150 251.719 C 30.952 251.719,30.739 251.981,30.677 252.303 C 30.600 252.706,30.686 252.812,30.956 252.645 C 31.211 252.487,31.268 252.531,31.120 252.769 C 30.996 252.971,30.771 253.059,30.621 252.966 C 30.471 252.874,30.059 253.452,29.705 254.251 C 28.965 255.924,28.902 256.379,29.453 256.062 C 29.680 255.931,29.735 255.956,29.583 256.122 C 29.440 256.278,29.159 256.409,28.958 256.412 C 28.758 256.415,28.604 256.724,28.617 257.099 C 28.630 257.474,28.535 257.717,28.407 257.637 C 28.181 257.498,26.563 260.717,26.563 261.306 C 26.562 261.467,26.725 261.499,26.923 261.376 C 27.149 261.237,27.199 261.291,27.058 261.519 C 26.934 261.721,26.726 261.820,26.596 261.739 C 26.466 261.659,26.054 262.223,25.680 262.993 C 24.963 264.468,24.753 265.519,25.341 264.688 C 25.636 264.271,25.657 264.271,25.532 264.688 C 25.454 264.945,25.233 265.121,25.041 265.079 C 24.849 265.036,24.058 266.358,23.283 268.015 C 21.796 271.198,21.633 271.736,22.266 271.379 C 22.573 271.205,22.576 271.245,22.276 271.569 C 22.066 271.795,21.363 272.160,20.713 272.380 C 19.667 272.734,19.601 272.728,20.138 272.327 C 20.471 272.079,21.034 271.859,21.388 271.839 C 21.884 271.811,21.911 271.771,21.505 271.664 C 20.915 271.508,18.976 272.405,19.162 272.748 C 19.228 272.869,18.775 273.384,18.156 273.891 L 17.031 274.814 17.969 273.736 L 18.906 272.659 18.009 273.439 C 16.336 274.895,15.625 276.372,15.625 278.393 C 15.625 280.268,16.363 282.660,16.849 282.360 C 16.996 282.269,17.308 282.439,17.543 282.738 C 17.928 283.230,17.917 283.240,17.422 282.852 C 16.319 281.988,16.903 283.103,18.047 284.046 C 19.116 284.928,21.189 285.790,21.498 285.481 C 21.568 285.411,21.084 285.203,20.422 285.019 C 19.760 284.834,18.867 284.387,18.438 284.024 L 17.656 283.363 18.537 283.891 C 19.733 284.606,22.118 285.305,23.379 285.309 C 24.058 285.311,25.565 285.955,27.754 287.176 C 30.949 288.959,33.752 290.257,39.219 292.487 C 40.594 293.047,42.000 293.625,42.344 293.770 C 44.716 294.773,54.684 297.521,59.844 298.595 C 61.219 298.882,62.751 299.244,63.250 299.402 C 63.748 299.559,64.695 299.687,65.355 299.687 C 66.014 299.687,67.153 299.825,67.886 299.994 C 75.545 301.757,96.438 301.987,107.813 300.434 C 109.789 300.164,112.250 299.836,113.281 299.705 C 115.184 299.464,117.702 298.966,119.688 298.440 C 120.289 298.280,122.815 297.642,125.301 297.021 C 129.578 295.953,135.037 294.351,136.406 293.761 C 136.750 293.613,138.156 293.039,139.531 292.486 C 144.565 290.462,148.012 288.836,151.448 286.864 C 153.468 285.705,154.384 285.370,155.909 285.232 C 156.964 285.136,158.391 284.779,159.080 284.438 C 159.868 284.048,160.199 283.979,159.973 284.252 C 159.775 284.490,159.067 284.848,158.398 285.049 C 157.730 285.249,157.245 285.474,157.321 285.550 C 158.079 286.308,162.219 282.852,162.720 281.043 C 163.906 276.758,161.106 272.106,156.961 271.476 C 156.579 271.418,156.157 271.250,156.024 271.104 C 155.890 270.957,155.957 270.938,156.172 271.062 C 156.825 271.438,156.621 270.710,155.276 267.872 C 154.568 266.378,153.726 264.550,153.404 263.808 C 153.081 263.067,152.686 262.542,152.524 262.641 C 152.363 262.741,152.129 262.658,152.005 262.457 C 151.863 262.228,151.914 262.175,152.139 262.314 C 152.338 262.437,152.499 262.423,152.497 262.284 C 152.490 261.605,148.149 252.666,147.858 252.731 C 147.666 252.773,147.607 252.584,147.721 252.289 C 147.837 251.984,147.791 251.851,147.608 251.964 C 147.437 252.070,147.308 251.851,147.321 251.474 C 147.333 251.099,147.180 250.790,146.979 250.787 C 146.779 250.784,146.497 250.653,146.354 250.497 C 146.203 250.331,146.257 250.306,146.484 250.437 C 146.700 250.561,146.875 250.502,146.875 250.306 C 146.875 249.642,144.293 244.389,144.042 244.544 C 143.905 244.628,143.691 244.533,143.567 244.332 C 143.426 244.103,143.476 244.050,143.702 244.189 C 144.152 244.467,144.169 243.907,143.734 243.096 C 143.554 242.758,143.274 242.564,143.113 242.664 C 142.947 242.766,142.909 242.612,143.025 242.309 C 143.159 241.960,143.111 241.847,142.887 241.985 C 142.698 242.102,142.441 242.033,142.317 241.832 C 142.176 241.603,142.226 241.550,142.452 241.689 C 143.025 242.043,142.881 241.468,141.846 239.254 C 140.831 237.086,140.289 236.403,141.074 238.281 C 141.698 239.777,141.405 239.665,140.660 238.124 C 140.328 237.435,140.195 236.959,140.367 237.065 C 140.548 237.177,140.634 236.951,140.573 236.519 C 140.516 236.113,140.305 235.781,140.104 235.781 C 139.904 235.781,139.622 235.653,139.479 235.497 C 139.325 235.329,139.395 235.315,139.650 235.462 C 140.170 235.763,140.304 236.120,137.848 230.675 C 136.484 227.649,135.693 226.248,135.348 226.245 C 135.021 226.242,134.968 226.160,135.197 226.011 C 135.441 225.852,135.207 225.059,134.437 223.438 C 133.826 222.148,132.517 219.336,131.528 217.188 C 130.539 215.039,129.547 213.281,129.323 213.281 C 129.098 213.281,128.879 213.000,128.835 212.656 L 128.755 212.031 129.043 212.656 C 129.202 213.000,129.341 213.122,129.353 212.928 C 129.394 212.269,127.765 209.055,127.479 209.232 C 127.323 209.328,127.266 209.221,127.354 208.992 C 127.486 208.649,123.538 199.938,117.896 188.125 C 117.281 186.836,116.315 184.727,115.750 183.438 C 115.185 182.148,114.586 181.094,114.419 181.094 C 114.252 181.094,113.997 180.966,113.854 180.809 C 113.701 180.642,113.767 180.625,114.014 180.768 C 114.315 180.942,114.403 180.845,114.323 180.428 C 114.261 180.106,114.048 179.844,113.850 179.844 C 113.652 179.844,113.372 179.716,113.229 179.559 C 113.078 179.394,113.132 179.369,113.359 179.500 C 113.574 179.623,113.750 179.640,113.750 179.538 C 113.750 178.987,111.443 174.412,111.231 174.543 C 111.093 174.628,110.879 174.533,110.755 174.332 C 110.613 174.103,110.664 174.050,110.889 174.189 C 111.412 174.512,111.336 174.023,110.607 172.376 C 110.254 171.577,109.841 170.999,109.691 171.091 C 109.541 171.184,109.316 171.096,109.192 170.894 C 109.051 170.666,109.101 170.612,109.327 170.751 C 109.860 171.081,109.768 170.219,109.196 169.513 C 108.925 169.179,108.811 169.117,108.943 169.375 C 109.149 169.779,109.109 169.784,108.654 169.415 C 108.065 168.937,107.935 168.596,108.468 168.925 C 108.680 169.056,108.767 168.915,108.698 168.553 C 108.636 168.231,108.423 167.969,108.225 167.969 C 108.027 167.969,107.747 167.841,107.604 167.684 C 107.453 167.519,107.507 167.494,107.734 167.625 C 108.321 167.962,108.260 167.772,106.455 163.654 C 105.536 161.558,104.693 159.589,104.582 159.277 C 104.471 158.965,104.248 158.792,104.086 158.892 C 103.925 158.991,103.691 158.908,103.567 158.707 C 103.420 158.468,103.477 158.425,103.732 158.582 C 104.001 158.749,104.088 158.643,104.010 158.240 C 103.948 157.919,103.736 157.656,103.537 157.656 C 103.339 157.656,103.060 157.528,102.917 157.372 C 102.765 157.206,102.820 157.181,103.047 157.312 C 103.610 157.636,103.551 157.429,102.433 155.162 C 101.880 154.042,101.248 153.125,101.027 153.125 C 100.806 153.125,100.625 152.976,100.625 152.794 C 100.625 152.612,100.766 152.550,100.938 152.656 C 101.371 152.924,101.331 152.692,100.723 151.417 C 100.434 150.809,99.977 150.310,99.708 150.308 C 99.297 150.304,99.290 150.258,99.663 150.022 C 100.024 149.793,99.681 148.883,97.834 145.178 C 96.046 141.590,95.604 140.437,95.768 139.784 C 95.950 139.059,95.915 139.004,95.492 139.356 C 95.225 139.577,95.097 139.905,95.208 140.084 C 95.330 140.280,95.256 140.315,95.023 140.170 C 94.741 139.996,94.857 139.701,95.452 139.080 C 96.221 138.277,96.560 138.197,101.337 137.690 C 106.006 137.194,108.163 136.860,112.813 135.911 C 116.071 135.247,121.095 134.008,121.602 133.745 C 121.882 133.599,122.655 133.402,123.321 133.306 L 124.531 133.132 123.438 133.452 C 122.836 133.628,122.063 133.897,121.719 134.049 C 121.375 134.202,120.039 134.568,118.750 134.862 C 117.461 135.156,116.195 135.525,115.938 135.682 C 115.578 135.901,115.614 135.931,116.094 135.810 C 116.438 135.723,117.703 135.423,118.906 135.143 C 120.109 134.863,121.375 134.511,121.719 134.359 C 122.063 134.208,122.836 133.965,123.438 133.819 C 124.049 133.671,124.531 133.359,124.531 133.110 C 124.531 132.845,124.974 132.595,125.636 132.487 C 126.243 132.389,126.877 132.223,127.044 132.120 C 127.437 131.877,133.218 130.300,134.844 129.992 C 136.124 129.750,137.978 129.351,141.563 128.547 C 142.680 128.297,144.373 127.977,145.325 127.838 C 146.278 127.698,147.338 127.494,147.682 127.385 C 148.345 127.175,150.537 126.856,156.875 126.047 C 162.645 125.311,180.931 125.122,183.906 125.767 C 185.781 126.174,185.848 126.209,184.375 126.012 C 177.160 125.045,156.200 126.010,148.009 127.686 C 146.827 127.927,145.394 128.125,144.824 128.125 C 144.254 128.125,143.711 128.247,143.619 128.396 C 143.527 128.546,142.710 128.762,141.804 128.877 C 140.898 128.992,139.734 129.205,139.219 129.351 C 138.703 129.497,137.438 129.782,136.406 129.986 C 134.114 130.439,131.624 131.074,128.125 132.097 C 124.646 133.115,124.764 133.072,125.371 133.100 C 125.661 133.114,126.997 132.789,128.340 132.377 C 131.364 131.451,133.964 130.781,136.406 130.299 C 137.438 130.095,138.703 129.809,139.219 129.663 C 139.734 129.518,140.898 129.304,141.804 129.189 C 142.710 129.074,143.527 128.858,143.619 128.709 C 143.711 128.560,144.254 128.438,144.824 128.438 C 145.394 128.438,146.827 128.239,148.009 127.996 C 154.454 126.669,160.022 126.195,171.094 126.028 C 178.045 125.924,181.737 125.991,183.203 126.249 L 185.313 126.619 185.313 129.053 C 185.313 130.518,185.501 131.936,185.785 132.618 C 186.268 133.773,186.685 134.193,186.367 133.203 C 186.224 132.757,186.250 132.740,186.512 133.110 C 186.689 133.360,186.758 133.687,186.665 133.836 C 186.573 133.986,186.770 134.415,187.104 134.789 C 187.438 135.163,187.904 135.961,188.138 136.563 C 188.792 138.236,189.719 139.705,190.009 139.526 C 190.152 139.437,190.371 139.529,190.495 139.731 C 190.637 139.959,190.586 140.013,190.361 139.874 C 190.162 139.751,190.000 139.760,190.000 139.894 C 190.000 140.233,193.511 143.750,193.849 143.750 C 193.999 143.750,193.441 143.105,192.608 142.317 L 191.094 140.885 192.891 142.377 C 193.879 143.198,194.688 143.936,194.688 144.018 C 194.688 144.100,194.592 144.072,194.476 143.955 C 194.249 143.728,193.589 145.328,193.078 147.344 C 192.725 148.741,192.952 154.781,193.619 161.719 C 194.089 166.604,194.019 164.315,193.409 154.866 C 193.069 149.605,193.182 146.825,193.773 145.935 C 193.988 145.609,194.008 145.752,193.838 146.406 C 193.474 147.805,193.616 154.512,194.176 162.303 C 194.449 166.106,194.817 171.398,194.994 174.063 C 195.402 180.219,195.413 205.162,195.009 210.313 C 194.841 212.461,194.471 217.594,194.187 221.719 C 193.602 230.232,193.052 235.783,193.306 230.625 C 193.386 228.992,193.662 224.703,193.920 221.094 C 194.177 217.484,194.542 212.352,194.731 209.688 C 195.109 204.349,194.879 175.742,194.416 170.625 L 194.148 167.656 194.255 170.625 C 194.621 180.764,194.723 205.386,194.417 209.688 C 194.227 212.352,193.852 217.695,193.582 221.563 C 193.126 228.104,192.935 230.368,192.143 238.594 C 191.402 246.287,190.744 251.881,190.433 253.125 C 190.326 253.555,190.120 254.750,189.975 255.781 C 189.831 256.813,189.489 258.711,189.214 260.000 C 188.190 264.814,188.071 265.845,188.244 268.438 C 188.428 271.203,189.347 274.531,189.926 274.531 C 190.110 274.531,190.378 274.659,190.521 274.816 C 190.674 274.983,190.608 275.000,190.361 274.857 C 190.060 274.683,189.972 274.780,190.052 275.197 C 190.114 275.519,190.327 275.781,190.525 275.781 C 190.723 275.781,191.003 275.909,191.146 276.066 C 191.300 276.234,191.230 276.248,190.975 276.100 C 190.680 275.929,190.590 275.988,190.689 276.285 C 190.768 276.523,190.990 276.719,191.182 276.719 C 191.374 276.719,191.714 276.923,191.937 277.172 C 192.288 277.564,192.269 277.570,191.797 277.212 C 191.462 276.959,191.250 276.927,191.250 277.131 C 191.250 277.460,191.838 277.955,192.240 277.964 C 192.354 277.967,192.565 278.097,192.708 278.253 C 192.860 278.419,192.805 278.444,192.578 278.313 C 192.363 278.189,192.188 278.210,192.188 278.359 C 192.188 278.508,192.504 278.769,192.891 278.940 C 193.277 279.112,193.425 279.216,193.219 279.173 C 193.013 279.130,192.915 279.278,193.001 279.503 C 193.088 279.728,192.799 280.339,192.360 280.861 C 191.517 281.863,191.321 282.373,191.923 282.001 C 192.149 281.862,192.199 281.916,192.058 282.144 C 191.934 282.346,191.706 282.433,191.553 282.338 C 191.254 282.153,190.212 284.027,189.898 285.313 C 189.794 285.742,189.071 286.820,188.292 287.707 C 186.876 289.319,186.530 289.923,187.266 289.500 C 187.493 289.369,187.547 289.394,187.396 289.559 C 187.253 289.716,186.983 289.844,186.797 289.844 C 186.611 289.844,186.393 290.039,186.314 290.278 C 186.226 290.541,186.308 290.626,186.522 290.494 C 187.063 290.159,186.941 290.495,186.346 290.977 C 185.890 291.347,185.855 291.342,186.094 290.938 C 186.335 290.527,186.301 290.525,185.820 290.916 C 185.514 291.164,185.335 291.615,185.418 291.932 C 185.500 292.245,185.446 292.426,185.299 292.335 C 184.063 291.572,182.807 297.728,182.875 304.210 L 182.938 310.156 183.117 303.750 C 183.277 298.029,183.598 295.625,184.203 295.625 C 184.289 295.625,184.193 296.012,183.990 296.484 C 183.766 297.005,183.553 299.927,183.451 303.906 C 183.354 307.664,183.159 310.426,182.995 310.370 C 182.838 310.315,182.381 311.077,181.979 312.063 C 181.130 314.150,181.128 314.161,181.641 313.902 C 181.855 313.793,181.339 314.357,180.494 315.154 C 177.625 317.859,177.437 317.907,168.750 318.134 C 162.495 318.298,160.911 318.430,160.094 318.855 C 159.544 319.141,158.908 319.375,158.682 319.375 C 158.456 319.375,157.499 320.020,156.557 320.808 L 154.844 322.242 156.544 320.652 C 157.479 319.778,158.435 319.062,158.669 319.063 C 158.902 319.063,159.544 318.828,160.094 318.542 C 160.911 318.117,162.495 317.985,168.750 317.822 C 177.282 317.599,177.576 317.530,180.156 315.159 L 181.406 314.011 180.000 315.091 C 177.130 317.297,177.158 317.291,168.750 317.510 C 162.493 317.673,160.911 317.804,160.094 318.230 C 159.544 318.516,158.887 318.750,158.634 318.750 C 157.939 318.750,154.630 321.900,154.816 322.385 C 155.146 323.245,153.645 323.384,143.743 323.409 C 132.027 323.439,130.874 323.625,128.282 325.898 L 127.346 326.719 128.126 325.830 C 130.269 323.387,132.050 323.076,143.896 323.073 C 149.430 323.071,154.109 322.977,154.293 322.863 C 154.478 322.749,149.966 322.683,144.267 322.716 C 131.914 322.788,130.730 322.996,128.047 325.567 C 126.937 326.630,126.454 327.485,127.236 327.001 C 127.461 326.862,127.512 326.916,127.370 327.144 C 127.246 327.346,127.019 327.433,126.865 327.338 C 125.959 326.778,124.527 332.980,125.266 334.266 C 125.533 334.730,125.566 334.629,125.437 333.750 C 125.348 333.148,125.416 331.883,125.587 330.938 C 125.887 329.279,125.892 329.302,125.730 331.587 C 125.591 333.536,125.654 334.047,126.084 334.477 C 126.692 335.085,278.110 335.298,279.063 334.692 C 279.727 334.270,279.642 330.172,278.940 328.815 C 278.307 327.592,278.537 327.475,279.220 328.672 C 279.694 329.503,279.704 329.505,279.504 328.750 C 279.248 327.776,278.760 327.145,278.424 327.352 C 278.283 327.439,278.066 327.346,277.942 327.144 C 277.801 326.916,277.851 326.862,278.077 327.001 C 278.866 327.489,278.371 326.627,277.266 325.588 C 274.509 322.997,273.540 322.825,261.186 322.731 L 251.278 322.656 249.696 321.065 C 248.825 320.190,247.799 319.331,247.416 319.155 C 244.250 317.708,244.422 317.734,236.563 317.513 C 228.212 317.278,227.852 317.202,225.276 315.108 C 224.241 314.267,224.234 314.266,224.938 315.052 C 226.967 317.319,228.164 317.605,236.563 317.825 C 242.801 317.989,244.404 318.122,245.219 318.544 C 245.769 318.829,246.427 319.063,246.681 319.063 C 246.936 319.063,247.892 319.781,248.806 320.658 L 250.469 322.254 248.794 320.815 C 247.873 320.023,246.917 319.375,246.669 319.375 C 246.422 319.375,245.769 319.142,245.219 318.857 C 244.404 318.435,242.801 318.301,236.563 318.138 C 227.888 317.910,227.115 317.703,224.485 314.904 C 223.823 314.200,223.527 313.810,223.828 314.037 C 224.451 314.509,224.524 314.299,224.047 313.408 C 223.866 313.071,223.595 312.872,223.443 312.965 C 223.292 313.059,223.066 312.971,222.942 312.769 C 222.801 312.541,222.851 312.487,223.077 312.626 C 223.552 312.920,223.537 312.319,223.047 311.464 C 222.786 311.008,222.599 308.604,222.484 304.219 C 222.355 299.339,222.173 297.183,221.771 295.809 C 221.110 293.546,219.355 290.156,218.844 290.156 C 218.638 290.156,218.286 289.952,218.063 289.703 C 217.712 289.311,217.731 289.305,218.203 289.663 C 219.223 290.434,218.757 289.504,217.581 288.421 C 216.522 287.445,216.485 287.432,217.189 288.281 L 217.966 289.219 216.952 288.301 C 215.954 287.398,215.636 286.964,216.250 287.344 C 216.422 287.450,216.563 287.405,216.563 287.244 C 216.563 286.900,215.873 286.280,215.573 286.355 C 215.458 286.383,215.247 286.278,215.104 286.122 C 214.953 285.956,215.007 285.931,215.234 286.062 C 216.234 286.638,214.762 282.784,213.515 281.563 C 213.090 281.146,213.065 281.146,213.291 281.563 C 213.455 281.865,213.304 281.820,212.866 281.436 C 212.108 280.771,211.921 280.327,212.656 280.938 C 212.952 281.183,213.125 281.204,213.125 280.994 C 213.125 280.665,212.537 280.170,212.135 280.161 C 212.021 280.158,211.845 280.051,211.745 279.922 C 211.645 279.793,211.651 279.753,211.760 279.833 C 211.961 279.981,213.125 278.666,213.125 278.292 C 213.125 278.180,212.949 278.191,212.734 278.317 C 212.520 278.442,212.612 278.240,212.939 277.866 C 213.652 277.053,213.985 276.965,213.437 277.734 C 213.222 278.035,213.416 277.887,213.867 277.404 C 214.700 276.515,214.986 275.716,214.327 276.124 C 214.101 276.263,214.051 276.209,214.192 275.981 C 214.316 275.779,214.542 275.691,214.693 275.785 C 215.074 276.020,215.713 274.742,215.496 274.178 C 215.399 273.925,215.452 273.799,215.613 273.899 C 216.788 274.625,217.641 266.041,216.745 262.521 C 215.941 259.364,215.313 256.328,215.313 255.599 C 215.313 255.204,215.176 254.099,215.010 253.144 C 214.843 252.188,214.488 249.648,214.221 247.500 C 213.954 245.352,213.598 242.642,213.430 241.479 C 213.262 240.315,213.125 238.541,213.125 237.537 C 213.125 236.532,212.984 234.968,212.812 234.062 C 212.500 232.413,211.973 225.971,211.573 218.906 L 211.361 215.156 211.305 217.954 C 211.253 220.602,211.380 222.421,212.215 230.938 C 212.408 232.914,212.681 235.938,212.819 237.656 C 212.958 239.375,213.229 242.242,213.421 244.027 C 213.612 245.812,213.707 247.335,213.631 247.411 C 213.555 247.487,213.408 246.589,213.306 245.415 C 213.203 244.242,212.980 242.421,212.809 241.370 C 212.639 240.319,212.500 238.622,212.500 237.599 C 212.500 236.577,212.357 234.967,212.183 234.023 C 211.870 232.331,211.505 227.799,210.942 218.594 C 210.784 216.016,210.512 212.078,210.337 209.844 C 209.926 204.605,209.929 182.304,210.341 175.625 C 210.516 172.789,210.780 168.359,210.927 165.781 C 211.945 147.990,212.151 145.687,212.022 153.594 L 211.926 159.531 212.227 155.313 C 212.686 148.877,211.925 143.028,210.754 143.986 C 210.156 144.474,210.853 143.809,212.813 142.020 C 213.930 141.000,214.431 140.620,213.926 141.176 C 213.421 141.733,213.107 142.188,213.227 142.188 C 213.514 142.188,215.291 140.232,215.303 139.903 C 215.308 139.764,215.137 139.756,214.922 139.885 C 214.656 140.045,214.669 139.951,214.960 139.591 C 215.460 138.975,215.769 138.884,215.427 139.453 C 215.268 139.719,215.362 139.706,215.721 139.415 C 216.012 139.179,216.248 138.757,216.245 138.477 C 216.241 138.033,216.199 138.028,215.909 138.438 C 215.614 138.854,215.593 138.854,215.718 138.438 C 215.796 138.180,216.016 138.003,216.207 138.046 C 216.646 138.143,217.566 135.994,217.292 135.514 C 217.179 135.317,217.196 135.254,217.328 135.373 C 218.283 136.232,220.000 132.186,220.000 129.078 C 220.000 126.613,220.013 126.571,220.859 126.334 C 221.924 126.036,241.679 126.015,245.313 126.308 C 247.927 126.518,247.917 126.514,244.688 126.062 C 240.505 125.475,221.659 125.592,220.156 126.214 C 219.402 126.526,219.295 126.525,219.608 126.208 C 221.566 124.230,243.876 125.118,260.156 127.822 C 264.065 128.472,274.910 130.980,277.656 131.871 C 278.688 132.205,280.305 132.704,281.250 132.980 C 282.195 133.256,283.250 133.595,283.594 133.732 C 284.922 134.262,292.007 135.922,295.781 136.586 C 298.299 137.029,304.004 137.769,306.807 138.016 C 308.058 138.126,309.137 138.306,309.205 138.415 C 309.386 138.708,301.224 137.835,297.188 137.130 C 292.426 136.299,285.212 134.669,283.594 134.058 C 283.250 133.929,282.125 133.574,281.094 133.269 C 280.063 132.965,278.656 132.528,277.969 132.297 C 275.805 131.572,270.808 130.313,270.156 130.329 C 269.813 130.338,271.148 130.758,273.125 131.264 C 275.102 131.769,277.281 132.373,277.969 132.606 C 278.656 132.838,280.063 133.278,281.094 133.582 C 282.125 133.886,283.250 134.241,283.594 134.371 C 285.040 134.916,292.125 136.567,295.781 137.211 C 297.945 137.592,303.602 138.337,306.563 138.631 C 307.726 138.747,308.841 139.049,309.173 139.339 C 309.492 139.616,309.844 139.820,309.955 139.792 C 310.066 139.763,310.227 139.821,310.313 139.920 C 310.398 140.019,310.293 139.999,310.078 139.875 C 309.834 139.735,309.688 139.840,309.688 140.153 C 309.688 140.430,309.463 141.090,309.189 141.619 C 308.778 142.416,308.764 142.629,309.111 142.849 C 309.449 143.063,309.438 143.116,309.054 143.120 C 308.769 143.123,308.046 144.196,307.257 145.786 C 305.882 148.559,305.670 149.260,306.328 148.865 C 306.594 148.705,306.581 148.799,306.290 149.159 C 305.804 149.758,305.473 149.874,305.811 149.327 C 305.949 149.103,305.897 149.051,305.673 149.189 C 305.475 149.312,305.313 149.534,305.313 149.684 C 305.312 149.833,304.398 151.879,303.281 154.231 C 301.281 158.440,300.972 159.271,301.535 158.923 C 301.691 158.827,301.547 159.310,301.215 159.999 C 300.470 161.540,300.177 161.652,300.801 160.156 C 301.586 158.278,301.044 158.961,300.029 161.129 C 298.994 163.343,298.850 163.918,299.423 163.564 C 299.649 163.425,299.699 163.478,299.558 163.707 C 299.434 163.908,299.223 164.005,299.089 163.923 C 298.716 163.692,297.388 166.753,297.666 167.204 C 297.820 167.453,297.782 167.518,297.562 167.382 C 297.346 167.248,296.799 168.069,296.108 169.565 C 294.932 172.110,294.779 172.673,295.361 172.314 C 295.586 172.175,295.637 172.228,295.495 172.457 C 295.371 172.658,295.138 172.742,294.978 172.643 C 294.818 172.543,294.546 172.832,294.374 173.283 C 293.971 174.344,293.981 174.459,294.453 174.187 C 294.680 174.056,294.735 174.081,294.583 174.247 C 294.440 174.403,294.161 174.531,293.963 174.531 C 293.764 174.531,293.552 174.794,293.490 175.115 C 293.412 175.518,293.499 175.624,293.768 175.457 C 294.023 175.300,294.080 175.343,293.933 175.582 C 293.809 175.783,293.592 175.877,293.453 175.791 C 293.313 175.704,292.901 176.326,292.537 177.172 C 291.769 178.956,291.733 179.181,292.266 178.875 C 292.493 178.744,292.547 178.769,292.396 178.934 C 292.253 179.091,292.005 179.219,291.847 179.219 C 291.585 179.219,288.861 184.870,283.233 197.091 C 282.110 199.531,281.285 201.679,281.400 201.865 C 281.515 202.051,281.431 202.164,281.214 202.117 C 280.996 202.070,280.767 202.313,280.705 202.656 C 280.609 203.182,280.648 203.207,280.944 202.813 C 281.258 202.396,281.283 202.396,281.170 202.813 C 281.099 203.070,280.871 203.281,280.662 203.281 C 280.453 203.281,280.008 203.894,279.672 204.644 C 278.976 206.198,278.905 206.697,279.423 206.376 C 279.649 206.237,279.699 206.291,279.558 206.519 C 279.434 206.721,279.206 206.808,279.053 206.713 C 278.899 206.618,278.487 207.102,278.137 207.789 C 277.424 209.186,277.319 209.836,277.861 209.501 C 278.086 209.362,278.137 209.416,277.995 209.644 C 277.871 209.846,277.663 209.945,277.534 209.865 C 277.316 209.730,274.368 215.776,274.373 216.347 C 274.374 216.486,274.537 216.499,274.736 216.376 C 274.961 216.237,275.012 216.291,274.870 216.519 C 274.746 216.721,274.517 216.807,274.362 216.711 C 274.207 216.615,273.670 217.421,273.169 218.503 C 272.667 219.584,270.976 223.205,269.410 226.548 C 266.807 232.107,266.030 234.047,266.904 232.813 C 267.198 232.396,267.221 232.396,267.107 232.813 C 267.037 233.070,266.821 233.281,266.627 233.281 C 266.253 233.281,264.691 236.128,264.689 236.815 C 264.688 237.060,264.845 237.130,265.078 236.990 C 265.376 236.811,265.386 236.862,265.120 237.206 C 264.928 237.453,264.681 237.867,264.570 238.125 C 264.459 238.383,264.427 238.277,264.499 237.891 C 264.699 236.811,264.467 237.046,263.765 238.633 C 263.081 240.178,262.920 241.084,263.466 240.313 C 263.761 239.896,263.783 239.896,263.670 240.313 C 263.599 240.570,263.379 240.781,263.180 240.781 C 262.839 240.781,259.063 248.126,259.063 248.789 C 259.063 248.960,259.225 248.999,259.423 248.876 C 259.649 248.737,259.699 248.791,259.558 249.019 C 259.434 249.221,259.217 249.314,259.078 249.228 C 258.938 249.142,258.526 249.763,258.162 250.609 C 257.403 252.372,257.359 252.624,257.861 252.314 C 258.086 252.175,258.137 252.228,257.995 252.457 C 257.871 252.658,257.660 252.755,257.526 252.672 C 257.284 252.523,253.750 259.688,253.750 260.328 C 253.750 260.512,253.925 260.557,254.141 260.427 C 254.406 260.268,254.394 260.362,254.102 260.721 C 253.638 261.294,253.279 261.446,253.594 260.937 C 253.700 260.766,253.703 260.625,253.601 260.625 C 253.391 260.625,252.187 263.324,252.188 263.794 C 252.188 263.962,252.350 263.999,252.548 263.876 C 252.774 263.737,252.824 263.791,252.683 264.019 C 252.559 264.221,252.322 264.302,252.157 264.200 C 251.992 264.098,251.298 265.223,250.616 266.700 C 249.264 269.627,249.199 269.833,249.736 269.501 C 249.961 269.362,250.012 269.416,249.870 269.644 C 249.746 269.846,249.510 269.927,249.345 269.825 C 249.181 269.724,248.900 270.060,248.721 270.573 C 248.511 271.175,248.110 271.577,247.588 271.708 C 246.542 271.970,244.227 273.565,243.608 274.450 C 243.025 275.282,242.982 275.744,243.516 275.437 C 243.743 275.306,243.797 275.331,243.646 275.497 C 243.503 275.653,243.225 275.781,243.029 275.781 C 242.834 275.781,242.562 276.414,242.425 277.188 C 242.028 279.430,242.712 282.480,243.501 281.992 C 243.719 281.858,243.757 281.923,243.606 282.167 C 243.076 283.025,247.343 286.199,248.061 285.481 C 248.131 285.411,247.642 285.206,246.974 285.027 C 246.270 284.837,245.304 284.216,244.677 283.549 L 243.594 282.398 244.844 283.374 C 246.389 284.581,248.403 285.313,250.177 285.313 C 250.919 285.313,251.591 285.418,251.671 285.547 C 251.751 285.676,251.021 285.759,250.049 285.732 L 248.281 285.684 250.000 285.910 C 251.159 286.063,252.329 286.515,253.594 287.301 C 255.934 288.754,260.015 290.718,264.688 292.639 C 266.664 293.452,268.563 294.236,268.906 294.381 C 269.498 294.631,272.445 295.548,276.250 296.667 C 278.673 297.379,283.701 298.632,285.000 298.847 C 286.985 299.175,284.996 298.541,281.250 297.651 C 279.273 297.182,277.094 296.623,276.406 296.410 C 275.719 296.197,273.891 295.644,272.344 295.180 C 270.797 294.717,269.250 294.218,268.906 294.071 C 268.563 293.925,266.664 293.143,264.688 292.335 C 260.317 290.547,253.880 287.392,252.813 286.515 C 252.190 286.003,252.318 286.031,253.438 286.651 C 257.690 289.003,260.015 290.103,265.469 292.338 C 267.016 292.972,268.563 293.610,268.906 293.756 C 269.250 293.901,270.727 294.380,272.188 294.821 C 273.648 295.261,275.266 295.756,275.781 295.920 C 276.297 296.084,278.477 296.653,280.625 297.183 C 282.773 297.714,285.079 298.295,285.748 298.475 C 289.786 299.560,299.201 300.809,306.875 301.277 C 316.549 301.867,328.778 301.366,337.813 300.011 C 338.930 299.843,340.336 299.634,340.938 299.545 C 341.539 299.457,343.016 299.165,344.219 298.897 C 345.422 298.629,346.969 298.298,347.656 298.162 C 350.720 297.553,361.203 294.548,362.969 293.772 C 367.278 291.879,373.803 289.323,373.950 289.471 C 374.149 289.670,376.563 288.548,376.563 288.256 C 376.563 288.164,376.400 288.188,376.202 288.311 C 375.988 288.443,375.925 288.397,376.048 288.199 C 376.617 287.278,380.544 285.487,382.432 285.287 C 383.604 285.162,385.051 284.739,386.025 284.236 C 386.922 283.773,387.497 283.557,387.301 283.755 C 387.106 283.954,386.262 284.462,385.426 284.885 C 384.590 285.307,384.258 285.565,384.688 285.458 C 388.403 284.532,390.925 279.321,389.303 275.921 C 388.369 273.963,385.291 271.520,383.844 271.589 C 383.461 271.608,383.532 271.692,384.065 271.854 C 385.463 272.280,386.699 273.050,387.689 274.114 C 388.649 275.145,389.357 276.469,388.746 276.092 C 388.577 275.987,388.438 275.726,388.438 275.512 C 388.438 274.635,385.140 272.188,383.960 272.188 C 383.715 272.187,383.321 271.950,383.085 271.659 C 382.794 271.299,382.781 271.205,383.047 271.365 C 383.516 271.647,383.557 271.137,383.125 270.386 C 382.953 270.088,382.672 269.449,382.501 268.966 C 382.329 268.483,382.057 268.168,381.897 268.268 C 381.737 268.367,381.504 268.283,381.380 268.082 C 381.231 267.842,381.290 267.800,381.548 267.960 C 382.037 268.262,381.821 267.515,380.727 265.126 C 380.267 264.121,379.814 263.515,379.615 263.639 C 379.425 263.756,379.368 263.701,379.485 263.512 C 379.764 263.061,379.140 261.478,378.772 261.705 C 378.612 261.804,378.379 261.721,378.255 261.519 C 378.113 261.291,378.164 261.237,378.389 261.376 C 378.912 261.699,378.836 261.210,378.107 259.564 C 377.754 258.764,377.341 258.186,377.191 258.279 C 377.041 258.372,376.816 258.283,376.692 258.082 C 376.551 257.853,376.601 257.800,376.827 257.939 C 377.450 258.324,375.082 252.557,374.272 251.719 C 374.076 251.516,374.058 251.560,374.221 251.845 C 374.385 252.133,374.352 252.210,374.124 252.070 C 373.934 251.952,373.853 251.658,373.946 251.416 C 374.038 251.175,373.206 249.105,372.097 246.817 C 370.988 244.529,369.692 241.777,369.216 240.703 C 368.741 239.629,368.160 238.750,367.926 238.750 C 367.692 238.750,367.500 238.601,367.500 238.419 C 367.500 238.237,367.636 238.172,367.801 238.274 C 367.967 238.377,367.881 237.928,367.610 237.277 C 366.736 235.174,366.230 234.351,365.928 234.537 C 365.765 234.638,365.716 234.501,365.819 234.233 C 365.992 233.781,363.681 228.353,363.018 227.656 C 362.828 227.457,362.815 227.513,362.983 227.813 C 363.209 228.216,363.172 228.222,362.716 227.852 C 362.144 227.388,361.991 227.029,362.500 227.344 C 362.672 227.450,362.814 227.423,362.815 227.284 C 362.821 226.798,358.945 218.786,358.760 218.900 C 358.657 218.964,358.577 218.641,358.583 218.184 C 358.589 217.726,358.430 217.350,358.229 217.348 C 358.029 217.346,357.747 217.216,357.604 217.059 C 357.451 216.892,357.517 216.875,357.764 217.018 C 358.065 217.192,358.153 217.095,358.073 216.678 C 358.011 216.356,357.798 216.094,357.600 216.094 C 357.402 216.094,357.122 215.966,356.979 215.809 C 356.828 215.644,356.882 215.619,357.109 215.750 C 357.676 216.076,357.591 215.626,356.819 214.214 C 356.444 213.529,355.395 211.281,354.488 209.219 C 353.581 207.156,352.704 205.469,352.539 205.469 C 352.374 205.469,352.122 205.341,351.979 205.184 C 351.828 205.019,351.882 204.994,352.109 205.125 C 352.828 205.538,349.405 197.657,348.535 196.892 C 348.426 196.797,348.452 196.916,348.592 197.158 C 348.759 197.446,348.728 197.523,348.499 197.382 C 348.309 197.264,348.218 196.996,348.299 196.786 C 348.489 196.291,346.693 192.031,346.294 192.031 C 346.127 192.031,345.872 191.903,345.729 191.747 C 345.578 191.581,345.632 191.556,345.859 191.687 C 346.447 192.025,346.362 191.771,344.954 188.977 C 344.242 187.563,343.564 186.055,343.448 185.625 C 343.331 185.195,343.082 184.844,342.894 184.844 C 342.706 184.844,342.435 184.716,342.292 184.559 C 342.139 184.392,342.203 184.374,342.448 184.516 C 342.755 184.693,342.838 184.562,342.761 184.019 C 342.703 183.613,342.492 183.281,342.292 183.281 C 342.091 183.281,341.810 183.153,341.667 182.997 C 341.514 182.829,341.580 182.813,341.827 182.956 C 342.129 183.130,342.212 183.034,342.121 182.615 C 342.051 182.294,341.816 182.070,341.599 182.117 C 341.381 182.164,341.283 182.074,341.381 181.916 C 341.624 181.522,340.016 178.078,339.685 178.283 C 339.538 178.374,339.316 178.283,339.192 178.082 C 339.051 177.853,339.101 177.800,339.327 177.939 C 339.531 178.065,339.677 177.985,339.663 177.753 C 339.612 176.890,334.467 166.410,334.129 166.481 C 333.933 166.522,333.847 166.360,333.939 166.121 C 334.031 165.882,333.751 165.005,333.317 164.171 C 332.884 163.338,332.520 162.867,332.510 163.125 C 332.493 163.536,332.454 163.537,332.199 163.133 C 332.014 162.840,332.026 162.600,332.232 162.473 C 332.429 162.351,331.448 159.934,329.715 156.275 C 328.153 152.976,326.875 150.231,326.875 150.175 C 326.875 150.119,325.809 147.860,324.506 145.155 L 322.137 140.237 323.256 139.314 C 324.284 138.467,324.853 137.480,324.014 137.999 C 323.789 138.138,323.738 138.084,323.880 137.856 C 324.004 137.654,324.223 137.562,324.367 137.651 C 324.844 137.946,326.159 135.182,326.351 133.481 C 327.439 123.882,316.290 118.435,309.167 125.085 C 307.936 126.234,303.252 126.063,298.438 124.692 C 296.909 124.257,292.207 123.100,291.168 122.904 C 290.693 122.814,290.228 122.616,290.134 122.464 C 290.040 122.312,289.710 122.188,289.401 122.188 C 289.092 122.188,286.769 121.401,284.240 120.440 C 281.710 119.479,279.587 118.746,279.521 118.812 C 279.348 118.986,288.805 122.506,289.435 122.503 C 289.725 122.501,290.040 122.624,290.134 122.776 C 290.228 122.929,290.693 123.126,291.168 123.216 C 292.207 123.412,296.909 124.569,298.438 125.004 C 301.808 125.964,307.664 126.500,308.789 125.952 C 309.510 125.601,309.513 125.605,308.906 126.103 C 307.772 127.034,300.930 126.167,293.906 124.204 C 292.875 123.916,291.643 123.609,291.168 123.523 C 290.693 123.436,290.228 123.241,290.134 123.089 C 290.040 122.937,289.715 122.813,289.411 122.813 C 289.107 122.813,286.971 122.095,284.664 121.217 C 278.189 118.755,276.648 118.182,273.281 116.984 C 268.750 115.372,264.371 114.003,263.200 113.831 C 262.640 113.748,262.104 113.556,262.010 113.403 C 261.915 113.250,261.530 113.126,261.153 113.127 C 260.777 113.127,259.836 112.928,259.063 112.683 C 255.661 111.607,245.756 109.563,241.406 109.038 C 240.203 108.893,238.867 108.686,238.438 108.577 C 237.092 108.237,230.689 107.768,225.156 107.603 C 222.234 107.517,219.745 107.352,219.624 107.238 C 219.393 107.021,228.355 107.288,232.656 107.626 C 235.332 107.837,241.342 108.612,243.906 109.078 C 249.438 110.082,251.148 110.423,254.219 111.132 C 256.109 111.569,258.289 112.126,259.063 112.371 C 259.836 112.615,260.757 112.815,261.109 112.814 C 261.462 112.813,261.902 112.964,262.087 113.149 C 262.272 113.335,262.828 113.426,263.321 113.353 L 264.219 113.219 263.222 113.172 C 262.673 113.146,262.137 112.984,262.031 112.813 C 261.925 112.641,261.530 112.501,261.153 112.502 C 260.777 112.502,259.836 112.303,259.063 112.058 C 257.231 111.479,251.494 110.157,248.125 109.537 C 246.664 109.269,244.766 108.920,243.906 108.763 C 238.376 107.749,233.266 107.259,225.391 106.989 L 220.000 106.804 220.000 104.480 C 220.000 101.996,219.613 100.880,218.391 99.843 L 217.656 99.219 218.279 100.000 L 218.902 100.781 218.045 100.024 C 217.189 99.267,216.909 98.853,217.500 99.219 C 217.971 99.510,217.880 98.958,217.190 97.350 C 216.848 96.551,216.436 95.979,216.274 96.079 C 216.113 96.179,215.879 96.096,215.755 95.894 C 215.613 95.666,215.664 95.612,215.889 95.751 C 216.338 96.029,216.348 95.768,215.922 94.971 C 215.741 94.633,215.470 94.434,215.318 94.528 C 215.167 94.621,214.941 94.533,214.817 94.332 C 214.676 94.103,214.726 94.050,214.952 94.189 C 215.677 94.637,215.278 93.876,214.182 92.719 C 213.037 91.511,210.416 89.468,209.141 88.790 C 207.850 88.103,208.416 88.617,210.391 89.925 C 211.465 90.637,212.906 91.823,213.593 92.563 L 214.843 93.906 213.437 92.615 C 212.664 91.905,211.168 90.743,210.114 90.034 C 207.912 88.553,207.611 88.220,207.637 87.305 C 207.657 86.628,210.698 83.615,211.029 83.945 C 211.675 84.591,213.739 79.592,213.745 77.366 C 213.755 74.235,209.869 67.344,208.095 67.344 C 207.968 67.344,207.747 67.216,207.604 67.059 C 207.450 66.891,207.520 66.877,207.775 67.025 C 208.070 67.196,208.160 67.137,208.061 66.840 C 207.982 66.602,207.764 66.406,207.578 66.406 C 207.392 66.406,207.122 66.278,206.979 66.122 C 206.825 65.954,206.895 65.940,207.150 66.087 C 207.445 66.258,207.535 66.200,207.436 65.903 C 207.357 65.664,207.139 65.469,206.953 65.469 C 206.767 65.469,206.497 65.341,206.354 65.184 C 206.203 65.019,206.257 64.994,206.484 65.125 C 206.961 65.399,206.981 65.156,206.547 64.346 C 206.366 64.008,206.087 63.814,205.925 63.914 C 205.764 64.013,205.705 63.904,205.795 63.672 C 205.884 63.439,205.742 62.733,205.479 62.103 C 205.215 61.473,205.000 60.466,205.000 59.865 C 205.000 57.842,202.987 56.096,201.742 57.038 M204.624 59.884 C 204.521 60.710,204.500 60.688,204.350 59.610 C 204.257 58.938,204.305 58.555,204.462 58.712 C 204.613 58.863,204.686 59.390,204.624 59.884 M197.188 67.905 C 197.188 67.956,196.590 68.554,195.859 69.233 L 194.531 70.469 195.767 69.141 C 196.915 67.905,197.188 67.669,197.188 67.905 M209.844 69.375 C 210.690 70.234,211.312 70.938,211.227 70.938 C 211.141 70.938,210.378 70.234,209.531 69.375 C 208.685 68.516,208.063 67.813,208.148 67.813 C 208.234 67.813,208.997 68.516,209.844 69.375 M192.485 75.029 C 192.100 75.747,192.233 78.535,192.739 80.388 C 192.914 81.032,192.949 81.490,192.815 81.408 C 191.832 80.800,191.707 74.375,192.678 74.375 C 192.764 74.375,192.677 74.669,192.485 75.029 M213.351 78.203 C 213.282 78.762,213.225 78.305,213.225 77.188 C 213.225 76.070,213.282 75.613,213.351 76.172 C 213.420 76.730,213.420 77.645,213.351 78.203 M212.829 80.484 C 212.678 80.991,212.542 81.172,212.527 80.885 C 212.497 80.303,212.830 79.289,212.997 79.455 C 213.056 79.514,212.980 79.977,212.829 80.484 M209.310 85.460 C 208.501 86.195,207.902 86.860,207.980 86.938 C 208.057 87.015,208.776 86.469,209.577 85.723 C 210.378 84.977,210.977 84.312,210.907 84.245 C 210.838 84.179,210.119 84.725,209.310 85.460 M194.688 84.570 C 194.688 84.742,195.074 85.164,195.547 85.508 C 196.560 86.246,197.491 86.787,197.031 86.372 C 196.859 86.216,196.262 85.677,195.703 85.173 C 195.145 84.670,194.688 84.399,194.688 84.570 M193.438 91.030 C 193.438 91.081,192.840 91.679,192.109 92.358 L 190.781 93.594 192.017 92.266 C 193.165 91.030,193.438 90.794,193.438 91.030 M186.347 101.641 C 186.208 101.855,186.012 103.156,185.912 104.531 L 185.731 107.031 185.678 104.745 C 185.631 102.724,185.951 101.250,186.436 101.250 C 186.526 101.250,186.486 101.426,186.347 101.641 M219.603 105.547 C 219.535 106.191,219.480 105.664,219.480 104.375 C 219.480 103.086,219.535 102.559,219.603 103.203 C 219.670 103.848,219.670 104.902,219.603 105.547 M142.500 113.028 C 141.342 113.222,137.753 114.420,137.898 114.564 C 137.966 114.633,138.841 114.408,139.841 114.063 C 140.842 113.719,141.982 113.438,142.374 113.438 C 142.767 113.438,143.175 113.297,143.281 113.125 C 143.387 112.953,143.431 112.832,143.378 112.855 C 143.325 112.878,142.930 112.956,142.500 113.028 M264.492 113.658 C 264.789 113.956,268.171 114.996,268.750 114.969 C 269.008 114.956,268.867 114.836,268.438 114.702 C 265.535 113.796,264.303 113.470,264.492 113.658 M133.281 115.916 C 131.906 116.391,130.219 116.995,129.531 117.259 C 128.844 117.522,127.817 117.912,127.250 118.124 C 126.682 118.336,126.282 118.574,126.360 118.652 C 126.438 118.730,127.254 118.489,128.173 118.116 C 130.877 117.021,131.911 116.643,134.141 115.933 C 135.301 115.564,136.250 115.203,136.250 115.131 C 136.250 114.918,135.907 115.009,133.281 115.916 M269.688 115.284 C 269.945 115.473,271.000 115.900,272.031 116.233 C 273.063 116.566,274.680 117.136,275.625 117.500 C 276.570 117.863,277.590 118.215,277.892 118.282 C 278.193 118.348,278.615 118.501,278.829 118.622 C 279.102 118.776,279.123 118.737,278.901 118.494 C 278.726 118.302,277.742 117.864,276.713 117.521 C 275.074 116.973,271.703 115.815,269.844 115.161 C 269.337 114.983,269.307 115.006,269.688 115.284 M318.974 122.756 C 320.438 123.273,322.813 124.592,322.813 124.888 C 322.813 125.048,322.474 124.873,321.250 124.077 C 318.111 122.038,314.123 122.182,310.703 124.458 C 309.973 124.945,309.375 125.267,309.375 125.176 C 309.375 123.478,316.173 121.765,318.974 122.756 M186.007 130.205 C 186.055 131.264,185.988 132.064,185.859 131.984 C 185.730 131.904,185.648 130.616,185.675 129.122 C 185.726 126.351,185.851 126.759,186.007 130.205 M249.219 126.782 C 250.328 126.883,255.777 127.714,260.156 128.451 C 263.023 128.933,265.053 129.344,266.047 129.645 C 267.594 130.113,269.615 130.348,269.063 129.996 C 268.805 129.832,268.216 129.695,267.755 129.692 C 267.293 129.690,266.548 129.548,266.099 129.377 C 264.319 128.700,251.132 126.538,249.253 126.615 L 247.969 126.668 249.219 126.782 M219.604 130.703 C 219.538 131.434,219.484 130.836,219.484 129.375 C 219.484 127.914,219.538 127.316,219.604 128.047 C 219.670 128.777,219.670 129.973,219.604 130.703 M325.613 129.063 C 325.618 129.320,325.411 129.128,325.154 128.636 C 324.560 127.496,324.556 127.207,325.146 127.987 C 325.399 128.321,325.609 128.805,325.613 129.063 M79.689 130.463 C 79.370 131.885,79.645 134.743,80.195 135.721 C 80.342 135.984,80.300 135.998,80.050 135.770 C 79.386 135.163,79.023 132.165,79.396 130.368 C 79.586 129.451,79.805 128.763,79.882 128.840 C 79.958 128.917,79.872 129.647,79.689 130.463 M326.176 132.188 C 326.176 132.884,326.150 132.868,325.938 132.031 C 325.806 131.516,325.699 130.742,325.699 130.313 C 325.699 129.616,325.725 129.632,325.938 130.469 C 326.069 130.984,326.176 131.758,326.176 132.188 M325.840 134.609 C 325.762 134.910,325.698 134.664,325.698 134.063 C 325.698 133.461,325.762 133.215,325.840 133.516 C 325.919 133.816,325.919 134.309,325.840 134.609 M112.500 136.266 C 109.815 136.915,106.034 137.503,101.406 137.992 C 98.656 138.283,96.302 138.613,96.174 138.726 C 95.633 139.207,109.088 137.371,114.375 136.243 C 115.431 136.017,115.437 136.009,114.531 136.006 C 114.016 136.004,113.102 136.121,112.500 136.266 M322.802 139.457 C 322.206 140.018,321.648 140.426,321.563 140.364 C 321.404 140.250,323.440 138.438,323.728 138.438 C 323.814 138.438,323.398 138.896,322.802 139.457 M212.164 143.022 L 211.406 143.856 212.256 143.256 C 212.723 142.926,213.110 142.551,213.115 142.422 C 213.131 142.037,212.960 142.145,212.164 143.022 M316.372 145.132 C 316.140 145.739,316.824 146.943,317.251 146.679 C 317.469 146.545,317.507 146.610,317.356 146.855 C 317.123 147.232,317.726 148.688,320.858 155.313 C 321.630 156.945,322.535 158.882,322.868 159.617 C 323.201 160.351,323.604 160.871,323.764 160.772 C 323.924 160.673,323.976 160.800,323.879 161.053 C 323.660 161.622,324.273 162.834,324.727 162.731 C 324.910 162.690,325.185 162.980,325.338 163.375 C 325.517 163.838,325.507 164.026,325.308 163.904 C 325.139 163.799,325.000 163.487,325.000 163.211 C 325.000 162.934,324.917 162.792,324.815 162.893 C 324.376 163.332,325.786 166.380,326.285 166.072 C 326.438 165.978,326.563 165.968,326.563 166.050 C 326.563 166.132,326.646 166.456,326.748 166.771 C 326.903 167.247,326.877 167.265,326.597 166.875 C 325.858 165.848,326.302 167.257,327.404 169.436 C 328.039 170.691,329.500 173.758,330.650 176.250 C 331.800 178.742,332.893 180.748,333.078 180.707 C 333.263 180.666,333.346 180.813,333.261 181.034 C 333.117 181.408,335.167 186.250,335.468 186.250 C 335.544 186.250,335.517 186.004,335.409 185.703 C 335.198 185.114,335.247 185.148,335.948 186.076 C 336.234 186.455,336.260 186.595,336.016 186.448 C 335.464 186.116,335.528 186.577,336.268 188.249 C 336.621 189.048,337.042 189.621,337.202 189.522 C 337.362 189.423,337.416 189.543,337.322 189.788 C 337.103 190.360,339.018 194.440,339.396 194.206 C 339.552 194.109,339.588 194.271,339.475 194.566 C 339.341 194.915,339.389 195.028,339.613 194.890 C 339.802 194.773,340.059 194.842,340.183 195.043 C 340.324 195.272,340.274 195.325,340.048 195.186 C 339.850 195.063,339.688 195.081,339.688 195.226 C 339.688 195.796,342.511 201.719,342.783 201.719 C 342.943 201.719,343.190 201.847,343.333 202.003 C 343.485 202.169,343.430 202.194,343.203 202.063 C 342.631 201.734,342.701 201.987,343.897 204.576 C 344.507 205.895,345.121 206.837,345.300 206.727 C 345.478 206.616,345.546 206.719,345.453 206.960 C 345.231 207.537,346.479 210.401,346.851 210.171 C 347.012 210.071,347.246 210.154,347.370 210.356 C 347.517 210.593,347.461 210.638,347.210 210.482 C 346.935 210.313,346.853 210.458,346.927 210.981 C 346.984 211.387,347.195 211.719,347.396 211.719 C 347.596 211.719,347.878 211.847,348.021 212.003 C 348.174 212.171,348.108 212.187,347.861 212.044 C 347.560 211.871,347.472 211.968,347.552 212.385 C 347.614 212.706,347.827 212.969,348.025 212.969 C 348.223 212.969,348.503 213.097,348.646 213.253 C 348.799 213.421,348.732 213.437,348.482 213.292 C 348.154 213.102,348.110 213.211,348.289 213.774 C 348.736 215.182,351.275 220.156,351.547 220.156 C 351.699 220.156,351.940 220.284,352.083 220.441 C 352.235 220.606,352.180 220.631,351.953 220.500 C 351.530 220.257,351.452 220.598,351.751 221.379 C 351.855 221.650,352.057 221.800,352.199 221.712 C 352.341 221.624,352.559 221.717,352.683 221.918 C 352.824 222.147,352.774 222.200,352.548 222.061 C 352.107 221.788,352.100 221.917,352.499 222.967 C 352.671 223.418,352.927 223.716,353.069 223.628 C 353.211 223.540,353.317 223.778,353.304 224.156 C 353.292 224.537,353.450 224.811,353.661 224.769 C 353.869 224.728,353.970 224.877,353.885 225.099 C 353.735 225.490,355.763 230.313,356.078 230.313 C 356.164 230.313,356.089 229.926,355.910 229.453 C 355.660 228.790,355.670 228.678,355.957 228.961 C 356.161 229.163,356.326 229.725,356.324 230.211 C 356.319 231.263,359.136 237.392,359.920 238.034 C 360.222 238.282,360.275 238.384,360.038 238.261 C 359.751 238.113,359.655 238.184,359.751 238.472 C 359.831 238.711,360.048 238.906,360.234 238.906 C 360.421 238.906,360.690 239.034,360.833 239.191 C 360.985 239.356,360.930 239.381,360.703 239.250 C 360.488 239.127,360.313 239.175,360.313 239.357 C 360.313 239.539,360.507 239.688,360.745 239.688 C 360.983 239.688,361.257 240.004,361.354 240.391 C 361.525 241.070,361.516 241.073,361.078 240.487 C 360.598 239.844,360.502 239.942,360.815 240.756 C 360.919 241.028,361.200 241.250,361.440 241.250 C 361.679 241.250,361.875 241.399,361.875 241.581 C 361.875 241.763,361.716 241.814,361.522 241.694 C 361.308 241.561,361.226 241.646,361.314 241.910 C 361.393 242.148,361.611 242.344,361.797 242.344 C 361.983 242.344,362.253 242.472,362.396 242.628 C 362.547 242.794,362.493 242.819,362.266 242.688 C 361.681 242.351,361.795 242.834,362.422 243.348 C 362.723 243.595,362.793 243.707,362.578 243.598 C 362.363 243.490,362.188 243.460,362.188 243.532 C 362.188 243.977,364.133 247.846,364.282 247.697 C 364.382 247.597,364.268 247.266,364.029 246.961 C 363.632 246.455,363.642 246.444,364.148 246.841 C 364.467 247.091,364.629 247.505,364.530 247.815 C 364.432 248.126,365.280 250.272,366.533 252.886 C 367.729 255.378,368.925 257.939,369.191 258.575 C 369.457 259.212,369.816 259.645,369.990 259.538 C 370.164 259.430,370.233 259.532,370.143 259.766 C 369.921 260.345,370.883 262.570,371.256 262.340 C 371.429 262.233,371.468 262.382,371.350 262.691 C 371.231 262.999,371.271 263.149,371.442 263.043 C 371.606 262.942,371.735 263.234,371.729 263.691 C 371.723 264.149,371.883 264.525,372.083 264.527 C 372.284 264.529,372.565 264.659,372.708 264.816 C 372.860 264.981,372.805 265.006,372.578 264.875 C 372.015 264.552,372.034 264.607,373.735 268.249 L 375.282 271.563 316.079 271.563 C 283.517 271.563,256.875 271.509,256.875 271.444 C 256.875 271.379,257.086 270.821,257.344 270.204 C 257.907 268.856,257.925 268.643,257.452 268.936 C 257.226 269.075,257.176 269.022,257.317 268.793 C 257.441 268.592,257.676 268.509,257.838 268.609 C 258.152 268.804,260.126 264.710,259.851 264.434 C 259.761 264.344,259.688 264.458,259.688 264.688 C 259.688 264.917,259.614 265.031,259.524 264.941 C 259.273 264.690,259.719 263.732,260.004 263.909 C 260.255 264.064,261.307 262.077,261.723 260.664 C 261.887 260.110,261.842 259.983,261.548 260.165 C 261.290 260.325,261.231 260.283,261.380 260.043 C 261.504 259.842,261.713 259.744,261.845 259.825 C 261.977 259.907,262.319 259.482,262.605 258.882 C 263.220 257.592,263.247 257.387,262.764 257.686 C 262.539 257.825,262.488 257.772,262.630 257.543 C 262.754 257.342,262.981 257.255,263.133 257.349 C 263.507 257.580,264.464 255.683,264.253 255.132 C 264.160 254.892,264.232 254.728,264.411 254.769 C 264.590 254.810,265.014 254.153,265.352 253.309 C 265.825 252.129,265.859 251.864,265.500 252.162 C 265.170 252.436,265.222 252.153,265.679 251.196 C 266.349 249.794,266.816 249.122,266.456 250.078 C 265.808 251.798,266.084 251.369,267.488 248.471 C 269.221 244.898,269.232 244.865,268.672 245.188 C 268.445 245.319,268.390 245.294,268.542 245.128 C 268.685 244.972,268.966 244.843,269.167 244.842 C 269.367 244.842,269.538 244.460,269.546 243.995 C 269.553 243.529,269.681 243.038,269.830 242.902 C 269.981 242.765,269.987 242.851,269.846 243.095 C 269.674 243.390,269.709 243.461,269.952 243.311 C 270.150 243.188,270.313 242.877,270.313 242.619 C 270.313 242.328,270.165 242.239,269.922 242.385 C 269.678 242.532,269.703 242.393,269.990 242.013 C 270.699 241.074,270.740 241.050,270.500 241.719 C 269.902 243.383,270.977 241.353,272.321 238.281 C 273.148 236.391,273.948 234.710,274.100 234.547 C 274.526 234.087,274.435 233.365,273.984 233.635 C 273.719 233.795,273.731 233.701,274.023 233.341 C 274.487 232.769,274.846 232.616,274.531 233.125 C 274.425 233.297,274.404 233.438,274.485 233.438 C 274.700 233.438,275.938 230.808,275.938 230.352 C 275.938 230.124,275.776 230.060,275.547 230.198 C 275.303 230.345,275.328 230.205,275.615 229.826 C 276.316 228.898,276.365 228.864,276.153 229.453 C 275.716 230.673,276.248 229.878,277.127 228.000 C 278.369 225.347,278.622 224.537,278.110 224.853 C 277.852 225.012,277.794 224.970,277.942 224.731 C 278.066 224.529,278.282 224.435,278.421 224.521 C 278.778 224.741,281.651 218.806,281.446 218.272 C 281.353 218.030,281.434 217.736,281.624 217.618 C 281.853 217.477,281.884 217.554,281.717 217.842 C 281.577 218.084,281.571 218.184,281.703 218.064 C 281.912 217.876,284.063 213.147,284.063 212.875 C 284.063 212.821,283.900 212.876,283.702 212.999 C 283.476 213.138,283.426 213.084,283.567 212.856 C 283.691 212.654,283.916 212.566,284.066 212.659 C 284.216 212.751,284.629 212.173,284.982 211.374 C 285.691 209.771,285.787 209.238,285.313 209.531 C 284.804 209.846,284.956 209.487,285.529 209.023 C 285.985 208.653,286.021 208.658,285.791 209.063 C 285.645 209.320,285.626 209.441,285.749 209.331 C 286.532 208.632,290.657 199.125,290.001 199.531 C 289.727 199.700,289.666 199.662,289.817 199.418 C 289.941 199.217,290.167 199.129,290.318 199.222 C 290.470 199.316,290.741 199.117,290.922 198.779 C 291.366 197.949,291.336 197.414,290.859 197.688 C 290.632 197.819,290.578 197.794,290.729 197.628 C 290.872 197.472,291.064 197.414,291.155 197.500 C 291.339 197.675,295.003 190.103,294.995 189.563 C 294.993 189.373,294.841 189.430,294.659 189.688 C 294.364 190.104,294.342 190.104,294.455 189.688 C 294.526 189.430,294.748 189.219,294.948 189.219 C 295.149 189.219,295.735 188.327,296.251 187.238 C 297.304 185.009,297.409 184.604,296.702 185.487 C 296.235 186.070,296.229 186.066,296.556 185.391 C 296.744 185.004,297.013 184.688,297.156 184.688 C 297.394 184.688,299.063 181.288,299.063 180.802 C 299.063 180.684,298.922 180.675,298.750 180.781 C 298.241 181.096,298.394 180.737,298.966 180.273 C 299.326 179.981,299.420 179.969,299.260 180.234 C 299.131 180.449,299.100 180.625,299.191 180.625 C 299.386 180.625,301.563 175.980,301.563 175.563 C 301.563 175.405,301.422 175.363,301.250 175.469 C 300.741 175.783,300.894 175.424,301.466 174.960 C 301.917 174.595,301.956 174.596,301.730 174.970 C 301.551 175.268,301.582 175.337,301.827 175.186 C 302.025 175.063,302.188 174.752,302.188 174.494 C 302.188 174.220,302.038 174.118,301.827 174.249 C 301.601 174.388,301.551 174.334,301.692 174.106 C 301.816 173.904,302.038 173.814,302.185 173.904 C 302.540 174.124,304.128 170.623,303.920 170.080 C 303.830 169.844,303.898 169.742,304.073 169.851 C 304.247 169.958,304.685 169.368,305.047 168.539 C 305.408 167.710,306.319 165.715,307.071 164.105 C 308.493 161.060,308.684 160.436,308.077 160.811 C 307.851 160.950,307.801 160.897,307.942 160.668 C 308.066 160.467,308.302 160.385,308.466 160.486 C 308.629 160.587,308.971 160.172,309.225 159.564 C 309.789 158.215,309.800 158.024,309.297 158.313 C 309.070 158.444,309.015 158.419,309.167 158.253 C 309.310 158.097,309.589 157.969,309.787 157.969 C 309.986 157.969,310.198 157.706,310.260 157.385 C 310.340 156.968,310.252 156.871,309.952 157.044 C 309.721 157.178,309.625 157.183,309.740 157.055 C 309.854 156.927,310.053 156.845,310.180 156.872 C 310.541 156.949,312.540 152.429,312.357 151.953 C 312.268 151.720,312.307 151.599,312.444 151.684 C 312.692 151.837,315.000 147.474,315.000 146.851 C 315.000 146.672,314.824 146.627,314.609 146.750 C 314.382 146.881,314.328 146.856,314.479 146.691 C 314.622 146.534,314.902 146.406,315.100 146.406 C 315.298 146.406,315.646 146.020,315.872 145.547 C 316.298 144.658,316.674 144.347,316.372 145.132 M324.665 146.406 C 324.665 146.578,324.464 146.367,324.219 145.938 C 323.973 145.508,323.772 145.016,323.772 144.844 C 323.772 144.672,323.973 144.883,324.219 145.313 C 324.464 145.742,324.665 146.234,324.665 146.406 M89.786 145.969 C 89.881 146.330,90.098 146.539,90.270 146.433 C 90.441 146.327,90.684 146.404,90.808 146.606 C 90.956 146.845,90.898 146.887,90.640 146.728 C 90.041 146.358,90.356 147.144,93.481 153.823 C 95.030 157.135,96.372 160.019,96.463 160.233 C 96.554 160.446,96.744 160.550,96.886 160.462 C 97.028 160.374,97.246 160.467,97.370 160.668 C 97.518 160.907,97.461 160.950,97.206 160.793 C 96.936 160.626,96.850 160.732,96.927 161.135 C 96.989 161.456,97.202 161.719,97.400 161.719 C 97.598 161.719,97.878 161.847,98.021 162.003 C 98.172 162.169,98.118 162.194,97.891 162.063 C 97.344 161.748,97.403 162.214,98.110 163.794 C 98.445 164.543,98.879 165.156,99.074 165.156 C 99.269 165.156,99.620 165.613,99.855 166.172 C 100.090 166.730,100.212 167.188,100.126 167.188 C 100.040 167.188,99.771 166.730,99.528 166.172 C 99.286 165.613,99.081 165.314,99.075 165.507 C 99.051 166.197,100.354 168.761,100.639 168.585 C 100.802 168.484,100.840 168.641,100.725 168.941 C 100.591 169.290,100.639 169.403,100.863 169.265 C 101.052 169.148,101.309 169.217,101.433 169.418 C 101.580 169.657,101.523 169.700,101.268 169.543 C 100.997 169.375,100.916 169.480,101.004 169.885 C 101.074 170.206,101.273 170.442,101.448 170.409 C 101.622 170.376,101.754 170.657,101.742 171.034 C 101.729 171.413,101.888 171.685,102.098 171.644 C 102.307 171.603,102.405 171.760,102.316 171.991 C 102.107 172.536,103.733 175.985,104.094 175.762 C 104.245 175.669,104.295 175.783,104.205 176.017 C 103.988 176.583,106.791 182.589,107.165 182.358 C 107.325 182.259,107.559 182.342,107.683 182.543 C 107.824 182.772,107.774 182.825,107.548 182.686 C 107.029 182.365,107.101 182.872,107.810 184.525 C 108.152 185.324,108.564 185.896,108.726 185.796 C 108.887 185.696,109.121 185.779,109.245 185.981 C 109.387 186.209,109.336 186.263,109.111 186.124 C 108.487 185.738,108.704 186.400,110.347 189.889 C 111.225 191.755,112.423 194.307,113.009 195.562 C 113.595 196.816,114.211 197.758,114.378 197.655 C 114.544 197.552,114.606 197.662,114.514 197.900 C 114.315 198.419,117.030 204.531,117.460 204.531 C 117.625 204.531,117.878 204.659,118.021 204.816 C 118.172 204.981,118.118 205.006,117.891 204.875 C 117.289 204.529,117.415 205.062,118.467 207.309 C 118.999 208.445,119.552 209.303,119.695 209.214 C 119.839 209.125,120.059 209.217,120.183 209.418 C 120.331 209.658,120.273 209.700,120.015 209.540 C 119.435 209.182,119.772 210.075,122.060 214.965 C 123.155 217.305,124.182 219.219,124.343 219.219 C 124.504 219.219,124.753 219.347,124.896 219.503 C 125.049 219.671,124.982 219.687,124.732 219.542 C 124.133 219.195,124.328 219.712,126.855 225.159 C 128.051 227.735,129.165 229.844,129.332 229.844 C 129.499 229.844,129.753 229.972,129.896 230.128 C 130.047 230.294,129.993 230.319,129.766 230.188 C 129.551 230.064,129.375 230.101,129.375 230.269 C 129.375 230.892,131.583 235.156,131.906 235.156 C 132.090 235.156,132.433 235.613,132.668 236.172 C 132.903 236.730,133.025 237.188,132.939 237.188 C 132.853 237.188,132.584 236.730,132.341 236.172 C 132.098 235.613,131.894 235.314,131.887 235.507 C 131.864 236.173,133.161 238.764,133.434 238.596 C 133.584 238.503,133.809 238.592,133.933 238.793 C 134.074 239.022,134.024 239.075,133.798 238.936 C 133.225 238.582,133.369 239.157,134.405 241.371 C 134.936 242.508,135.489 243.365,135.633 243.276 C 135.777 243.187,135.996 243.279,136.120 243.481 C 136.268 243.719,136.211 243.763,135.956 243.605 C 135.685 243.437,135.604 243.542,135.692 243.947 C 135.761 244.269,135.961 244.504,136.135 244.472 C 136.309 244.439,136.442 244.720,136.429 245.097 C 136.416 245.475,136.576 245.748,136.786 245.707 C 136.994 245.666,137.098 245.808,137.015 246.023 C 136.827 246.514,139.247 252.031,139.651 252.031 C 139.814 252.031,140.065 252.159,140.208 252.316 C 140.360 252.481,140.305 252.506,140.078 252.375 C 139.834 252.235,139.688 252.340,139.688 252.656 C 139.687 252.959,139.832 253.072,140.048 252.939 C 140.268 252.803,140.324 252.853,140.192 253.068 C 140.072 253.261,140.195 253.845,140.464 254.366 C 140.997 255.396,141.349 255.643,141.034 254.766 C 140.823 254.176,140.872 254.210,141.573 255.138 C 141.859 255.518,141.885 255.657,141.641 255.510 C 140.839 255.028,141.423 256.463,145.379 264.688 C 146.413 266.836,147.458 269.056,147.701 269.622 C 147.945 270.187,148.271 270.572,148.425 270.476 C 148.580 270.381,148.809 270.467,148.933 270.668 C 149.085 270.913,149.023 270.950,148.745 270.778 C 148.445 270.593,148.386 270.665,148.531 271.042 C 148.717 271.526,144.608 271.563,89.375 271.563 C 34.142 271.563,30.033 271.526,30.219 271.042 C 30.364 270.665,30.305 270.593,30.005 270.778 C 29.727 270.950,29.665 270.913,29.817 270.668 C 29.941 270.467,30.153 270.370,30.288 270.454 C 30.732 270.728,33.562 264.516,33.234 263.986 C 33.113 263.790,33.177 263.745,33.389 263.876 C 33.605 264.010,33.750 263.896,33.750 263.594 C 33.750 263.278,33.604 263.172,33.359 263.313 C 33.132 263.444,33.078 263.419,33.229 263.253 C 33.372 263.097,33.617 262.969,33.772 262.969 C 34.194 262.969,36.302 258.399,36.110 257.900 C 36.019 257.662,36.077 257.549,36.238 257.649 C 36.399 257.748,36.679 257.554,36.859 257.217 C 37.304 256.386,37.273 255.851,36.797 256.125 C 36.570 256.256,36.515 256.231,36.667 256.066 C 36.810 255.909,37.057 255.781,37.217 255.781 C 37.587 255.781,40.361 249.649,40.183 249.224 C 40.109 249.049,40.038 249.144,40.025 249.435 C 40.011 249.725,39.861 250.049,39.692 250.154 C 39.495 250.275,39.480 250.084,39.649 249.625 C 39.796 249.230,40.096 248.906,40.317 248.906 C 40.538 248.906,40.828 248.625,40.962 248.281 C 41.322 247.358,41.296 247.124,40.859 247.375 C 40.632 247.506,40.578 247.481,40.729 247.316 C 40.872 247.159,41.152 247.031,41.350 247.031 C 41.548 247.031,41.761 246.769,41.823 246.447 C 41.903 246.030,41.815 245.933,41.514 246.107 C 41.267 246.250,41.201 246.233,41.354 246.066 C 41.497 245.909,41.746 245.781,41.907 245.781 C 42.172 245.781,45.296 239.340,45.797 237.762 C 45.954 237.267,45.902 237.169,45.580 237.355 C 45.331 237.499,45.263 237.483,45.417 237.316 C 45.560 237.159,45.812 237.031,45.976 237.031 C 46.388 237.031,48.464 232.441,48.280 231.937 C 48.199 231.713,48.267 231.613,48.432 231.715 C 48.804 231.945,49.767 229.720,49.545 229.141 C 49.455 228.908,49.523 228.804,49.695 228.911 C 50.080 229.149,51.955 225.069,51.671 224.610 C 51.550 224.415,51.615 224.370,51.827 224.501 C 52.043 224.635,52.188 224.521,52.188 224.219 C 52.188 223.897,52.045 223.799,51.797 223.948 C 51.553 224.095,51.578 223.955,51.865 223.576 C 52.575 222.635,52.614 222.613,52.393 223.281 C 52.189 223.897,52.193 223.897,52.655 223.300 C 52.914 222.966,53.123 222.474,53.120 222.206 C 53.116 221.776,53.076 221.774,52.784 222.188 C 52.489 222.604,52.467 222.604,52.580 222.188 C 52.651 221.930,52.878 221.719,53.085 221.719 C 53.580 221.719,56.344 215.696,56.119 215.109 C 56.023 214.859,56.070 214.732,56.222 214.827 C 56.375 214.921,56.795 214.432,57.156 213.740 C 57.888 212.337,57.995 211.725,57.452 212.061 C 57.226 212.200,57.176 212.147,57.317 211.918 C 57.441 211.717,57.670 211.631,57.825 211.726 C 58.096 211.894,58.758 210.601,59.202 209.035 C 59.374 208.428,59.346 208.373,59.059 208.750 C 58.742 209.167,58.717 209.167,58.830 208.750 C 58.901 208.492,59.138 208.281,59.357 208.281 C 59.576 208.281,60.453 206.736,61.305 204.848 C 62.157 202.960,63.620 199.808,64.557 197.845 C 65.541 195.783,66.187 194.044,66.086 193.727 C 65.990 193.425,66.057 193.088,66.234 192.979 C 66.432 192.856,66.476 192.986,66.350 193.316 C 66.203 193.697,66.258 193.782,66.537 193.610 C 66.753 193.476,66.860 193.101,66.775 192.777 C 66.690 192.452,66.730 192.254,66.863 192.336 C 67.123 192.497,69.702 187.099,69.666 186.471 C 69.653 186.264,69.514 186.375,69.356 186.719 L 69.068 187.344 69.162 186.719 C 69.214 186.375,69.420 186.128,69.621 186.170 C 70.090 186.267,71.035 184.456,70.815 183.882 C 70.722 183.640,70.817 183.478,71.027 183.519 C 71.237 183.560,71.396 183.288,71.383 182.909 C 71.371 182.532,71.479 182.251,71.624 182.284 C 72.005 182.370,74.443 176.878,74.249 176.371 C 74.159 176.137,74.256 175.978,74.464 176.019 C 74.675 176.061,74.833 175.787,74.821 175.406 C 74.808 175.026,74.936 174.804,75.108 174.911 C 75.294 175.025,75.336 174.886,75.213 174.566 C 75.074 174.205,75.125 174.103,75.369 174.254 C 75.610 174.403,75.665 174.305,75.533 173.961 C 75.411 173.643,75.480 173.474,75.714 173.519 C 75.925 173.561,76.083 173.287,76.071 172.906 C 76.058 172.528,76.142 172.277,76.258 172.349 C 76.573 172.543,79.429 166.216,79.244 165.735 C 79.157 165.507,79.212 165.353,79.368 165.394 C 79.645 165.467,82.500 159.944,82.500 159.335 C 82.500 159.165,82.324 159.127,82.109 159.250 C 81.882 159.381,81.828 159.356,81.979 159.191 C 82.122 159.034,82.381 158.906,82.553 158.906 C 82.726 158.906,83.628 157.223,84.559 155.167 C 86.523 150.826,86.771 150.147,86.283 150.448 C 85.748 150.779,85.875 150.440,86.466 149.960 C 86.826 149.669,86.920 149.656,86.760 149.922 C 86.631 150.137,86.606 150.313,86.704 150.313 C 87.038 150.313,88.434 146.809,88.231 146.481 C 88.118 146.298,88.178 146.246,88.367 146.363 C 88.553 146.477,88.795 146.288,88.905 145.942 C 89.164 145.126,89.569 145.138,89.786 145.969 M87.656 147.813 C 87.390 148.328,87.101 148.750,87.015 148.750 C 86.929 148.750,87.077 148.328,87.344 147.813 C 87.610 147.297,87.899 146.875,87.985 146.875 C 88.071 146.875,87.923 147.297,87.656 147.813 M91.622 148.594 C 91.905 149.209,91.902 149.209,91.423 148.612 C 91.156 148.279,90.949 147.786,90.962 147.518 C 90.983 147.098,91.011 147.095,91.161 147.500 C 91.256 147.758,91.464 148.250,91.622 148.594 M303.834 154.453 C 303.193 155.774,302.989 155.975,303.281 155.000 C 303.496 154.280,304.009 153.438,304.233 153.438 C 304.285 153.438,304.105 153.895,303.834 154.453 M211.635 160.625 C 211.635 161.227,211.699 161.473,211.778 161.172 C 211.857 160.871,211.857 160.379,211.778 160.078 C 211.699 159.777,211.635 160.023,211.635 160.625 M211.368 165.313 C 211.368 167.289,211.419 168.098,211.481 167.109 C 211.543 166.121,211.543 164.504,211.481 163.516 C 211.419 162.527,211.368 163.336,211.368 165.313 M106.853 165.469 C 106.853 165.641,106.652 165.430,106.406 165.000 C 106.161 164.570,105.960 164.078,105.960 163.906 C 105.960 163.734,106.161 163.945,106.406 164.375 C 106.652 164.805,106.853 165.297,106.853 165.469 M333.296 164.717 C 333.571 165.248,333.741 165.739,333.673 165.806 C 333.605 165.874,333.316 165.439,333.030 164.840 C 332.387 163.492,332.610 163.389,333.296 164.717 M306.104 165.495 C 305.843 165.996,305.628 166.259,305.627 166.078 C 305.624 165.590,306.392 164.042,306.493 164.333 C 306.541 164.470,306.366 164.993,306.104 165.495 M327.633 168.486 C 327.904 169.028,328.124 169.555,328.123 169.657 C 328.120 169.928,326.880 168.013,326.877 167.734 C 326.873 167.249,327.158 167.532,327.633 168.486 M210.818 171.328 C 210.714 172.574,210.575 181.047,210.510 190.156 L 210.391 206.719 210.620 190.938 C 210.746 182.258,210.960 173.785,211.096 172.109 C 211.231 170.434,211.267 169.063,211.175 169.063 C 211.083 169.063,210.923 170.082,210.818 171.328 M103.829 174.610 C 103.925 174.997,103.877 175.235,103.721 175.138 C 103.565 175.042,103.438 174.698,103.438 174.375 C 103.438 174.052,103.297 173.700,103.125 173.594 C 102.953 173.488,102.813 173.237,102.813 173.037 C 102.813 172.520,103.618 173.767,103.829 174.610 M292.986 177.531 C 292.732 178.115,292.519 178.425,292.512 178.218 C 292.497 177.756,293.184 176.205,293.337 176.358 C 293.397 176.418,293.240 176.946,292.986 177.531 M300.313 177.813 C 299.962 178.500,299.604 179.063,299.519 179.063 C 299.433 179.063,299.649 178.500,300.000 177.813 C 300.351 177.125,300.708 176.563,300.794 176.563 C 300.880 176.563,300.663 177.125,300.313 177.813 M66.098 178.007 C 65.838 178.629,65.625 179.215,65.625 179.309 C 65.625 179.403,65.553 179.407,65.465 179.319 C 65.286 179.141,66.167 176.875,66.415 176.875 C 66.501 176.875,66.358 177.384,66.098 178.007 M56.406 198.750 C 56.140 199.266,55.851 199.688,55.765 199.688 C 55.679 199.688,55.827 199.266,56.094 198.750 C 56.360 198.234,56.649 197.813,56.735 197.813 C 56.821 197.813,56.673 198.234,56.406 198.750 M115.603 199.844 C 115.603 200.016,115.402 199.805,115.156 199.375 C 114.911 198.945,114.710 198.453,114.710 198.281 C 114.710 198.109,114.911 198.320,115.156 198.750 C 115.402 199.180,115.603 199.672,115.603 199.844 M342.498 200.426 C 342.497 200.622,342.286 200.378,342.029 199.886 C 341.773 199.394,341.563 198.831,341.564 198.636 C 341.565 198.441,341.776 198.684,342.033 199.176 C 342.290 199.669,342.499 200.231,342.498 200.426 M62.940 200.625 C 62.525 201.484,62.118 202.188,62.036 202.188 C 61.864 202.188,62.800 200.043,63.230 199.453 C 63.780 198.697,63.686 199.078,62.940 200.625 M286.406 207.500 C 286.140 208.016,285.851 208.438,285.765 208.438 C 285.679 208.438,285.827 208.016,286.094 207.500 C 286.360 206.984,286.649 206.563,286.735 206.563 C 286.821 206.563,286.673 206.984,286.406 207.500 M210.732 209.531 C 210.733 210.906,210.788 211.430,210.854 210.695 C 210.920 209.960,210.919 208.835,210.852 208.195 C 210.785 207.555,210.731 208.156,210.732 209.531 M211.027 213.594 C 211.029 214.453,211.090 214.768,211.162 214.293 C 211.234 213.818,211.232 213.114,211.157 212.730 C 211.083 212.346,211.025 212.734,211.027 213.594 M282.378 216.060 C 281.733 217.604,281.493 217.493,282.105 215.934 C 282.376 215.245,282.654 214.737,282.723 214.807 C 282.792 214.876,282.637 215.440,282.378 216.060 M55.506 216.457 C 55.241 216.945,55.019 217.245,55.013 217.124 C 54.991 216.753,55.718 215.302,55.856 215.440 C 55.928 215.511,55.770 215.969,55.506 216.457 M53.631 220.519 C 53.366 221.007,53.144 221.307,53.138 221.187 C 53.116 220.815,53.843 219.364,53.981 219.502 C 54.053 219.574,53.895 220.031,53.631 220.519 M359.665 221.094 C 359.665 221.266,359.464 221.055,359.219 220.625 C 358.973 220.195,358.772 219.703,358.772 219.531 C 358.772 219.359,358.973 219.570,359.219 220.000 C 359.464 220.430,359.665 220.922,359.665 221.094 M280.625 220.122 C 280.625 220.360,280.349 220.888,280.012 221.294 L 279.400 222.031 279.934 220.870 C 280.524 219.589,280.625 219.479,280.625 220.122 M127.872 226.094 C 128.155 226.709,128.152 226.709,127.673 226.112 C 127.406 225.779,127.199 225.286,127.212 225.018 C 127.233 224.598,127.261 224.595,127.411 225.000 C 127.506 225.258,127.714 225.750,127.872 226.094 M355.286 227.656 C 355.286 227.828,355.017 227.477,354.688 226.875 C 354.358 226.273,354.089 225.641,354.089 225.469 C 354.089 225.297,354.358 225.648,354.688 226.250 C 355.017 226.852,355.286 227.484,355.286 227.656 M137.667 230.959 C 137.940 231.486,138.119 232.042,138.066 232.194 C 138.012 232.347,137.733 231.915,137.445 231.236 C 136.824 229.771,136.963 229.597,137.667 230.959 M192.929 237.109 C 192.810 238.957,192.600 240.820,192.462 241.250 C 192.283 241.806,192.249 241.625,192.345 240.625 C 192.419 239.852,192.567 237.988,192.674 236.484 C 192.781 234.980,192.931 233.750,193.007 233.750 C 193.083 233.750,193.048 235.262,192.929 237.109 M359.030 235.547 C 359.399 236.277,359.630 236.875,359.544 236.875 C 359.366 236.875,358.125 234.517,358.125 234.179 C 358.125 233.837,358.306 234.110,359.030 235.547 M366.688 235.969 C 367.053 236.701,367.067 236.851,366.744 236.584 C 366.360 236.265,365.845 235.000,366.100 235.000 C 366.157 235.000,366.422 235.436,366.688 235.969 M37.748 238.672 C 37.548 239.145,37.196 239.741,36.966 239.997 C 36.736 240.252,36.835 239.866,37.187 239.137 C 37.896 237.670,38.321 237.318,37.748 238.672 M191.890 246.932 L 191.565 247.969 191.720 246.914 C 191.805 246.334,191.902 244.998,191.935 243.945 L 191.995 242.031 192.106 243.963 C 192.167 245.026,192.070 246.362,191.890 246.932 M261.756 244.269 C 261.491 244.757,261.269 245.057,261.263 244.937 C 261.241 244.565,261.968 243.114,262.106 243.252 C 262.178 243.324,262.020 243.781,261.756 244.269 M267.515 247.782 C 266.629 249.520,266.399 249.416,267.251 247.663 C 267.624 246.893,267.984 246.317,268.049 246.383 C 268.115 246.448,267.875 247.078,267.515 247.782 M33.594 247.500 C 33.327 248.016,33.039 248.438,32.953 248.438 C 32.867 248.438,33.015 248.016,33.281 247.500 C 33.548 246.984,33.836 246.563,33.922 246.563 C 34.008 246.563,33.860 246.984,33.594 247.500 M214.340 250.938 C 214.361 251.711,214.505 252.836,214.659 253.438 C 214.813 254.039,215.009 255.375,215.094 256.406 C 215.220 257.927,215.200 258.045,214.991 257.031 C 214.268 253.532,213.480 246.459,214.050 248.594 C 214.188 249.109,214.318 250.164,214.340 250.938 M191.268 251.406 L 190.947 252.656 191.095 251.406 C 191.177 250.719,191.268 249.664,191.299 249.063 L 191.355 247.969 191.472 249.063 C 191.536 249.664,191.444 250.719,191.268 251.406 M367.574 253.677 C 367.854 254.239,367.963 254.625,367.818 254.535 C 367.508 254.343,366.249 251.812,366.252 251.386 C 366.254 251.101,366.537 251.591,367.574 253.677 M190.306 257.732 C 189.975 258.247,189.964 258.246,190.133 257.709 C 190.232 257.394,190.338 256.480,190.369 255.678 L 190.425 254.219 190.542 255.700 C 190.606 256.515,190.500 257.429,190.306 257.732 M34.783 260.777 C 34.497 261.377,34.208 261.812,34.140 261.744 C 33.997 261.601,34.945 259.688,35.159 259.688 C 35.238 259.688,35.069 260.178,34.783 260.777 M215.840 261.172 C 215.762 261.473,215.698 261.227,215.698 260.625 C 215.698 260.023,215.762 259.777,215.840 260.078 C 215.919 260.379,215.919 260.871,215.840 261.172 M189.323 262.266 C 188.887 263.057,188.755 269.873,189.145 271.406 C 189.357 272.237,189.339 272.273,188.994 271.719 C 188.130 270.334,188.613 261.563,189.553 261.563 C 189.639 261.563,189.535 261.879,189.323 262.266 M216.815 266.180 C 216.946 269.133,216.229 273.833,215.724 273.329 C 215.649 273.254,215.824 272.379,216.113 271.386 C 216.643 269.562,216.642 263.851,216.111 262.344 C 215.893 261.726,215.895 261.725,216.281 262.335 C 216.498 262.677,216.735 264.388,216.815 266.180 M147.000 266.797 C 147.284 267.355,147.446 267.813,147.360 267.813 C 147.180 267.813,146.250 266.080,146.250 265.745 C 146.250 265.418,146.419 265.656,147.000 266.797 M251.184 266.797 C 250.675 267.995,250.198 268.481,250.615 267.377 C 251.006 266.340,251.231 265.938,251.418 265.938 C 251.490 265.938,251.385 266.324,251.184 266.797 M374.344 268.210 C 374.693 269.022,374.907 269.688,374.822 269.688 C 374.665 269.688,373.438 266.985,373.438 266.641 C 373.438 266.269,373.728 266.771,374.344 268.210 M31.343 268.427 C 31.255 268.765,30.952 269.216,30.669 269.428 C 30.237 269.753,30.218 269.744,30.547 269.376 C 30.762 269.135,30.938 268.684,30.938 268.375 C 30.938 268.066,31.065 267.813,31.221 267.813 C 31.377 267.813,31.432 268.089,31.343 268.427 M119.322 272.109 C 102.878 272.154,75.878 272.154,59.322 272.109 C 42.765 272.065,56.219 272.028,89.219 272.028 C 122.219 272.028,135.765 272.065,119.322 272.109 M158.889 272.514 C 159.101 272.726,158.900 272.732,158.274 272.533 C 156.598 271.999,156.390 271.866,157.490 272.034 C 158.086 272.125,158.716 272.341,158.889 272.514 M247.835 272.239 C 247.245 272.408,246.120 272.968,245.335 273.483 C 244.130 274.273,244.053 274.294,244.844 273.618 C 246.035 272.600,247.479 271.883,248.281 271.910 C 248.645 271.923,248.458 272.060,247.835 272.239 M346.197 272.109 C 329.753 272.154,302.753 272.154,286.197 272.109 C 269.640 272.065,283.094 272.028,316.094 272.028 C 349.094 272.028,362.640 272.065,346.197 272.109 M160.963 273.949 C 161.237 274.287,161.019 274.211,160.391 273.751 C 159.832 273.342,159.375 272.959,159.375 272.899 C 159.375 272.662,160.547 273.436,160.963 273.949 M16.548 276.277 C 16.182 276.961,16.268 280.330,16.679 281.406 C 16.823 281.783,16.727 281.720,16.439 281.250 C 15.655 279.972,15.888 275.625,16.741 275.625 C 16.827 275.625,16.740 275.918,16.548 276.277 M162.645 279.604 C 162.541 280.504,162.341 281.312,162.199 281.399 C 162.058 281.486,162.078 280.961,162.243 280.232 C 162.408 279.503,162.468 278.273,162.377 277.500 C 162.230 276.262,162.248 276.206,162.522 277.031 C 162.693 277.547,162.749 278.705,162.645 279.604 M242.955 277.955 C 242.835 278.752,242.673 279.340,242.595 279.262 C 242.517 279.184,242.551 278.468,242.670 277.670 C 242.790 276.873,242.952 276.285,243.030 276.363 C 243.108 276.441,243.074 277.157,242.955 277.955 M389.456 279.496 C 389.367 280.291,389.069 281.097,388.788 281.308 C 388.362 281.628,388.344 281.619,388.672 281.251 C 388.899 280.995,389.074 279.893,389.089 278.609 C 389.109 276.991,389.183 276.626,389.367 277.236 C 389.505 277.692,389.545 278.709,389.456 279.496 M192.979 280.869 L 192.085 281.719 192.839 280.744 C 193.254 280.208,193.657 279.826,193.733 279.894 C 193.810 279.963,193.471 280.401,192.979 280.869 M243.189 280.608 C 243.264 281.115,243.209 281.458,243.068 281.371 C 242.818 281.216,242.695 279.688,242.933 279.688 C 243.000 279.688,243.115 280.102,243.189 280.608 M23.281 285.912 C 24.278 286.039,25.636 286.576,27.031 287.393 C 29.554 288.870,32.995 290.627,33.350 290.620 C 33.484 290.617,32.047 289.795,30.156 288.793 C 28.266 287.791,26.227 286.669,25.625 286.299 C 24.885 285.845,24.076 285.641,23.125 285.670 L 21.719 285.713 23.281 285.912 M152.805 286.384 C 150.693 287.771,145.750 290.207,141.406 292.003 C 139.000 292.998,136.750 293.932,136.406 294.077 C 134.995 294.676,129.539 296.275,125.301 297.334 C 122.815 297.954,120.289 298.588,119.688 298.743 C 117.078 299.413,114.161 300.002,113.456 300.001 C 113.037 300.000,111.912 300.143,110.956 300.319 C 110.001 300.494,107.742 300.837,105.938 301.080 L 102.656 301.522 105.625 301.357 C 107.258 301.266,109.481 300.994,110.566 300.752 C 111.651 300.510,112.917 300.313,113.379 300.313 C 114.133 300.314,116.666 299.813,119.688 299.065 C 120.289 298.917,121.766 298.558,122.969 298.268 C 127.995 297.057,134.190 295.261,136.406 294.370 C 144.472 291.132,147.661 289.673,151.482 287.474 C 153.335 286.407,154.522 285.937,155.563 285.854 L 157.031 285.738 155.469 285.700 C 154.316 285.672,153.617 285.851,152.805 286.384 M378.828 286.742 C 377.754 287.351,376.875 287.921,376.875 288.010 C 376.875 288.098,377.684 287.705,378.672 287.135 C 379.831 286.467,381.079 286.032,382.188 285.908 L 383.906 285.717 382.344 285.676 C 381.084 285.643,380.402 285.849,378.828 286.742 M189.375 287.285 C 189.375 287.339,188.918 287.796,188.359 288.301 L 187.344 289.219 188.262 288.203 C 189.117 287.256,189.375 287.044,189.375 287.285 M368.438 291.773 C 365.773 292.894,363.313 293.938,362.969 294.092 C 362.119 294.473,358.661 295.574,356.563 296.131 C 355.617 296.382,354.302 296.732,353.640 296.908 C 352.978 297.084,352.491 297.283,352.558 297.349 C 352.784 297.576,361.224 295.188,362.969 294.404 C 363.313 294.249,365.879 293.175,368.672 292.017 C 373.228 290.127,374.263 289.635,373.516 289.711 C 373.387 289.725,371.102 290.653,368.438 291.773 M34.844 291.259 C 35.531 291.586,37.359 292.365,38.906 292.990 C 40.453 293.614,42.000 294.246,42.344 294.392 C 45.676 295.816,60.466 299.674,59.063 298.754 C 58.805 298.585,58.277 298.445,57.890 298.442 C 56.623 298.434,43.216 294.649,42.344 294.054 C 42.172 293.936,41.750 293.764,41.406 293.670 C 41.063 293.576,39.238 292.853,37.352 292.062 C 33.841 290.590,32.613 290.197,34.844 291.259 M221.525 296.250 C 221.519 296.508,221.325 296.227,221.094 295.625 C 220.544 294.198,220.552 293.637,221.105 294.844 C 221.341 295.359,221.530 295.992,221.525 296.250 M350.156 297.852 C 349.641 298.017,348.586 298.280,347.813 298.438 C 347.039 298.596,345.422 298.947,344.219 299.219 C 343.016 299.491,341.188 299.832,340.156 299.977 C 327.856 301.704,328.527 301.658,315.938 301.650 C 305.265 301.642,303.342 301.563,298.906 300.950 C 290.768 299.825,290.239 299.746,288.318 299.386 C 287.307 299.196,286.415 299.106,286.336 299.184 C 286.257 299.263,286.874 299.417,287.706 299.527 C 288.538 299.636,289.542 299.857,289.937 300.019 C 290.331 300.180,291.199 300.313,291.864 300.313 C 292.530 300.313,293.894 300.509,294.897 300.749 C 301.851 302.413,328.695 302.507,336.406 300.894 C 337.266 300.714,338.883 300.444,340.000 300.295 C 341.117 300.145,343.016 299.801,344.219 299.530 C 345.422 299.259,347.039 298.907,347.813 298.747 C 349.979 298.300,352.417 297.556,351.719 297.555 C 351.375 297.554,350.672 297.688,350.156 297.852 M222.262 306.455 C 222.307 308.717,222.238 310.501,222.109 310.421 C 221.980 310.341,221.903 307.507,221.937 304.122 C 221.999 297.959,222.110 298.754,222.262 306.455 M60.781 299.406 C 61.469 299.576,62.523 299.859,63.125 300.036 C 63.727 300.214,64.852 300.302,65.625 300.234 L 67.031 300.109 65.370 300.055 C 64.456 300.025,63.472 299.877,63.183 299.727 C 62.893 299.578,61.953 299.374,61.094 299.276 C 59.567 299.101,59.560 299.103,60.781 299.406 M67.795 300.649 C 68.215 300.821,69.411 301.029,70.451 301.110 C 71.492 301.192,73.339 301.392,74.555 301.556 C 77.791 301.992,92.871 302.254,98.125 301.967 C 101.724 301.770,100.052 301.714,90.000 301.696 C 79.951 301.677,76.539 301.563,73.438 301.143 C 67.362 300.320,66.892 300.278,67.795 300.649 M262.542 323.117 C 273.459 323.165,275.118 323.472,277.186 325.830 L 277.966 326.719 277.030 325.916 C 274.435 323.692,274.453 323.695,261.812 323.472 C 254.523 323.344,250.854 323.168,250.621 322.934 C 250.368 322.680,250.688 322.653,251.820 322.832 C 252.671 322.966,257.495 323.094,262.542 323.117 M280.053 332.553 C 280.024 333.183,279.919 333.956,279.820 334.271 C 279.651 334.810,279.661 334.811,279.995 334.291 C 280.190 333.988,280.295 333.214,280.227 332.573 L 280.105 331.406 280.053 332.553 M126.358 335.386 C 126.556 335.512,160.891 335.615,202.656 335.615 C 244.422 335.615,278.756 335.512,278.955 335.386 C 279.153 335.260,244.819 335.156,202.656 335.156 C 160.494 335.156,126.160 335.260,126.358 335.386 " stroke="none" fill="#000000" fill-rule="evenodd"></path></g></svg>
