<svg id="svg" version="1.1" xmlns="http://www.w3.org/2000/svg" xmlns:xlink="http://www.w3.org/1999/xlink" width="400" height="400" viewBox="0, 0, 400,400"><g id="svgg"><path id="path0" d="M0.000 200.000 L 0.000 400.000 200.000 400.000 L 400.000 400.000 400.000 200.000 L 400.000 0.000 200.000 0.000 L 0.000 0.000 0.000 200.000 M391.563 199.844 L 391.563 391.250 200.156 391.250 L 8.750 391.250 8.750 199.844 L 8.750 8.438 200.156 8.438 L 391.563 8.438 391.563 199.844 M86.976 184.183 C 80.952 186.146,79.531 189.135,79.531 199.844 L 79.531 207.656 80.433 209.609 C 84.419 218.238,97.950 217.967,101.233 209.192 C 102.234 206.518,102.269 206.562,99.141 206.566 L 96.406 206.570 95.718 207.633 C 92.634 212.395,86.380 211.191,84.986 205.567 C 84.349 202.995,84.701 193.867,85.497 192.344 C 87.809 187.916,94.626 188.168,96.070 192.734 C 96.279 193.395,96.461 193.438,99.124 193.438 L 101.957 193.438 101.771 192.293 C 100.783 186.207,93.319 182.115,86.976 184.183 M111.351 184.183 C 105.327 186.146,103.906 189.135,103.906 199.844 L 103.906 207.656 104.808 209.609 C 108.696 218.027,121.657 218.037,125.484 209.625 C 127.206 205.837,126.969 192.340,125.124 189.192 C 122.562 184.820,116.339 182.557,111.351 184.183 M271.939 184.342 C 267.965 185.715,265.943 188.634,265.939 193.008 C 265.934 198.400,269.070 201.343,275.900 202.357 C 280.944 203.105,282.188 203.892,282.188 206.335 C 282.188 211.141,274.447 212.208,268.820 208.179 C 267.556 207.273,267.571 207.267,265.635 209.485 C 263.824 211.559,263.826 211.570,266.296 213.155 C 274.074 218.146,285.052 216.406,287.194 209.844 C 289.333 203.292,285.813 198.519,277.857 197.182 C 272.024 196.201,270.120 194.342,271.739 191.210 C 273.058 188.660,279.238 188.430,282.627 190.804 C 283.702 191.556,284.168 191.306,285.573 189.221 C 287.152 186.878,287.176 186.967,284.614 185.667 C 280.804 183.733,275.352 183.163,271.939 184.342 M131.563 199.844 L 131.563 215.625 134.214 215.625 L 136.866 215.625 136.948 206.541 L 137.031 197.458 140.000 204.358 L 142.969 211.258 145.261 211.176 L 147.554 211.094 150.487 204.375 L 153.421 197.656 153.429 206.641 L 153.438 215.625 156.094 215.625 L 158.750 215.625 158.750 199.831 L 158.750 184.037 156.209 184.128 L 153.669 184.219 149.597 193.672 C 147.357 198.871,145.429 203.125,145.311 203.125 C 145.193 203.125,143.214 198.836,140.912 193.594 L 136.727 184.063 134.145 184.063 L 131.563 184.063 131.563 199.844 M164.688 199.844 L 164.688 215.625 167.339 215.625 L 169.991 215.625 170.073 206.541 L 170.156 197.458 173.125 204.358 L 176.094 211.258 178.386 211.176 L 180.679 211.094 183.612 204.375 L 186.546 197.656 186.554 206.641 L 186.563 215.625 189.219 215.625 L 191.875 215.625 191.875 199.831 L 191.875 184.037 189.334 184.128 L 186.794 184.219 182.722 193.672 C 180.482 198.871,178.554 203.125,178.436 203.125 C 178.318 203.125,176.339 198.836,174.037 193.594 L 169.852 184.063 167.270 184.063 L 164.688 184.063 164.688 199.844 M197.252 195.703 C 197.362 207.072,197.381 207.387,198.102 209.200 C 201.498 217.748,214.758 218.309,218.813 210.077 L 219.844 207.984 219.936 196.023 L 220.028 184.063 217.358 184.063 L 214.688 184.063 214.688 194.939 L 214.688 205.815 213.912 207.361 C 211.773 211.620,205.628 211.656,203.366 207.422 C 202.673 206.125,202.654 205.836,202.557 195.078 L 202.457 184.063 199.799 184.063 L 197.141 184.063 197.252 195.703 M225.625 199.844 L 225.625 215.625 228.277 215.625 L 230.929 215.625 231.012 204.999 L 231.094 194.373 237.813 204.985 L 244.531 215.596 247.109 215.611 L 249.688 215.625 249.688 199.844 L 249.688 184.063 247.035 184.063 L 244.383 184.063 244.301 194.604 L 244.219 205.145 237.518 194.604 L 230.817 184.063 228.221 184.063 L 225.625 184.063 225.625 199.844 M255.625 199.844 L 255.625 215.625 258.281 215.625 L 260.938 215.625 260.938 199.844 L 260.938 184.063 258.281 184.063 L 255.625 184.063 255.625 199.844 M292.188 199.844 L 292.188 215.625 294.839 215.625 L 297.491 215.625 297.573 206.541 L 297.656 197.458 300.625 204.358 L 303.594 211.258 305.886 211.176 L 308.179 211.094 311.112 204.375 L 314.046 197.656 314.054 206.641 L 314.063 215.625 316.719 215.625 L 319.375 215.625 319.375 199.831 L 319.375 184.037 316.834 184.128 L 314.294 184.219 310.222 193.672 C 307.982 198.871,306.054 203.125,305.936 203.125 C 305.818 203.125,303.839 198.836,301.537 193.594 L 297.352 184.063 294.770 184.063 L 292.188 184.063 292.188 199.844 M117.594 189.569 C 120.646 191.115,121.077 192.304,121.086 199.219 C 121.095 205.933,120.936 206.842,119.461 208.474 C 116.126 212.165,110.960 210.894,109.494 206.021 C 108.977 204.303,108.912 195.874,109.400 193.756 C 110.237 190.123,114.443 187.974,117.594 189.569 " stroke="none" fill="#000000" fill-rule="evenodd"></path></g></svg>
