<svg id="svg" version="1.1" xmlns="http://www.w3.org/2000/svg" xmlns:xlink="http://www.w3.org/1999/xlink" width="400" height="400" viewBox="0, 0, 400,400"><g id="svgg"><path id="path0" d="M0.000 200.000 L 0.000 400.000 200.000 400.000 L 400.000 400.000 400.000 200.000 L 400.000 0.000 200.000 0.000 L 0.000 0.000 0.000 200.000 M391.563 199.844 L 391.563 391.250 200.156 391.250 L 8.750 391.250 8.750 199.844 L 8.750 8.438 200.156 8.438 L 391.563 8.438 391.563 199.844 M281.041 184.311 C 275.102 186.428,273.906 189.031,273.906 199.844 L 273.906 207.969 274.781 209.751 C 278.803 217.940,291.086 218.051,295.147 209.934 C 296.812 206.605,296.791 206.563,293.468 206.563 L 290.687 206.563 290.067 207.613 C 287.674 211.669,281.838 211.457,279.896 207.243 C 279.082 205.475,278.726 196.355,279.372 193.788 C 280.773 188.214,288.187 187.370,290.329 192.541 C 290.699 193.434,290.711 193.438,293.516 193.438 L 296.332 193.438 296.150 192.318 C 295.137 186.075,287.479 182.017,281.041 184.311 M107.188 199.825 L 107.188 215.625 109.844 215.625 L 112.500 215.625 112.500 209.051 L 112.500 202.477 115.332 202.566 L 118.164 202.656 121.250 209.063 L 124.337 215.469 127.481 215.558 C 131.302 215.666,131.335 216.405,127.159 208.439 C 125.253 204.803,123.741 201.787,123.800 201.737 C 123.858 201.688,124.235 201.476,124.637 201.267 C 130.884 198.013,131.071 188.533,124.955 185.146 L 123.281 184.219 115.234 184.121 L 107.188 184.024 107.188 199.825 M134.063 199.844 L 134.063 215.625 144.375 215.625 L 154.688 215.625 154.688 213.125 L 154.688 210.625 147.031 210.625 L 139.375 210.625 139.375 206.413 L 139.375 202.200 145.859 202.116 L 152.344 202.031 152.435 199.609 L 152.526 197.188 145.951 197.188 L 139.375 197.188 139.375 193.125 L 139.375 189.063 147.031 189.063 L 154.688 189.063 154.688 186.563 L 154.688 184.063 144.375 184.063 L 134.063 184.063 134.063 199.844 M158.438 199.844 L 158.438 215.625 161.094 215.625 L 163.750 215.625 163.750 209.531 L 163.750 203.438 168.225 203.438 C 173.723 203.438,175.261 203.048,177.420 201.106 C 181.793 197.174,181.796 189.468,177.425 186.134 C 174.867 184.184,174.277 184.077,166.016 184.069 L 158.438 184.063 158.438 199.844 M183.805 195.859 L 183.906 207.656 184.808 209.609 C 188.708 218.053,201.626 218.102,205.596 209.688 L 206.406 207.969 206.498 196.016 L 206.590 184.063 203.920 184.063 L 201.250 184.063 201.250 194.854 C 201.250 203.887,201.171 205.834,200.766 206.803 C 198.751 211.625,192.354 211.944,189.889 207.344 C 189.246 206.145,189.215 205.642,189.119 195.078 L 189.020 184.063 186.362 184.063 L 183.704 184.063 183.805 195.859 M212.188 199.821 L 212.188 215.625 220.078 215.622 C 230.040 215.618,232.743 214.526,234.119 209.950 C 235.444 205.542,233.231 199.381,230.319 199.374 C 230.058 199.373,230.265 199.111,230.781 198.790 C 235.672 195.753,235.131 187.747,229.844 184.893 C 228.670 184.260,228.095 184.213,220.391 184.118 L 212.188 184.016 212.188 199.821 M238.750 199.844 L 238.750 215.625 249.063 215.625 L 259.375 215.625 259.375 213.125 L 259.375 210.625 251.719 210.625 L 244.063 210.625 244.063 197.344 L 244.063 184.063 241.406 184.063 L 238.750 184.063 238.750 199.844 M263.125 199.844 L 263.125 215.625 265.781 215.625 L 268.438 215.625 268.438 199.844 L 268.438 184.063 265.781 184.063 L 263.125 184.063 263.125 199.844 M122.192 189.323 C 124.380 190.475,124.969 193.474,123.433 195.632 C 122.323 197.190,121.184 197.500,116.573 197.500 L 112.500 197.500 112.500 193.125 L 112.500 188.750 116.802 188.750 C 120.370 188.750,121.289 188.848,122.192 189.323 M226.239 189.158 C 228.530 189.947,229.444 192.939,228.035 195.032 C 226.931 196.673,225.959 196.984,221.484 197.131 L 217.500 197.261 217.500 193.006 L 217.500 188.750 221.328 188.768 C 223.434 188.777,225.644 188.953,226.239 189.158 M172.980 189.693 C 174.726 190.538,175.449 191.902,175.250 193.973 C 174.914 197.470,173.275 198.438,167.687 198.438 L 163.750 198.438 163.750 193.750 L 163.750 189.063 167.714 189.063 C 171.050 189.063,171.884 189.162,172.980 189.693 M227.400 202.678 C 229.410 204.155,229.831 206.793,228.380 208.831 C 227.326 210.311,226.135 210.625,221.573 210.625 L 217.500 210.625 217.500 206.221 L 217.500 201.816 222.009 201.924 C 225.977 202.018,226.624 202.109,227.400 202.678 " stroke="none" fill="#000000" fill-rule="evenodd"></path></g></svg>
