<svg id="svg" version="1.1" xmlns="http://www.w3.org/2000/svg" xmlns:xlink="http://www.w3.org/1999/xlink" width="400" height="400" viewBox="0, 0, 400,400"><g id="svgg"><path id="path0" d="M0.000 200.000 L 0.000 400.000 200.000 400.000 L 400.000 400.000 400.000 200.000 L 400.000 0.000 200.000 0.000 L 0.000 0.000 0.000 200.000 M391.563 199.844 L 391.563 391.250 200.156 391.250 L 8.750 391.250 8.750 199.844 L 8.750 8.438 200.156 8.438 L 391.563 8.438 391.563 199.844 M164.164 183.870 C 161.272 184.812,158.344 187.506,157.318 190.165 C 156.441 192.440,156.418 206.169,157.288 208.663 C 160.379 217.528,174.367 217.950,178.303 209.296 C 180.019 205.525,179.776 192.019,177.936 188.879 C 175.374 184.508,169.152 182.244,164.164 183.870 M281.939 184.029 C 277.965 185.402,275.943 188.322,275.939 192.695 C 275.934 198.088,279.070 201.030,285.900 202.044 C 290.944 202.793,292.188 203.580,292.188 206.023 C 292.188 210.828,284.447 211.896,278.820 207.866 C 277.554 206.960,277.574 206.951,275.606 209.206 L 273.980 211.068 275.037 211.955 C 282.160 217.937,294.906 216.542,297.194 209.531 C 299.333 202.980,295.813 198.207,287.857 196.869 C 283.081 196.066,281.250 194.926,281.250 192.755 C 281.250 188.807,286.654 187.504,291.966 190.172 C 294.018 191.204,294.028 191.200,295.573 188.909 C 297.152 186.566,297.176 186.655,294.614 185.354 C 290.804 183.420,285.352 182.851,281.939 184.029 M70.938 199.531 L 70.938 215.313 73.590 215.313 L 76.242 215.313 76.324 204.686 L 76.406 194.060 83.125 204.672 L 89.844 215.284 92.422 215.298 L 95.000 215.313 95.000 199.531 L 95.000 183.750 92.348 183.750 L 89.696 183.750 89.614 194.291 L 89.531 204.832 82.830 194.291 L 76.130 183.750 73.534 183.750 L 70.938 183.750 70.938 199.531 M108.783 184.453 C 106.602 190.256,97.813 214.697,97.813 214.958 C 97.813 215.196,98.731 215.313,100.599 215.313 L 103.386 215.313 104.531 211.875 L 105.677 208.438 111.354 208.438 L 117.032 208.438 118.239 211.875 L 119.446 215.313 122.223 215.313 C 123.750 215.313,125.000 215.204,125.000 215.070 C 125.000 214.871,119.828 200.539,114.796 186.797 L 113.681 183.750 111.364 183.750 C 109.248 183.750,109.024 183.811,108.783 184.453 M121.250 186.094 L 121.250 188.438 125.469 188.438 L 129.688 188.438 129.688 201.875 L 129.688 215.313 132.344 215.313 L 135.000 215.313 135.000 201.875 L 135.000 188.438 139.375 188.438 L 143.750 188.438 143.750 186.094 L 143.750 183.750 132.500 183.750 L 121.250 183.750 121.250 186.094 M146.250 199.531 L 146.250 215.313 148.906 215.313 L 151.563 215.313 151.563 199.531 L 151.563 183.750 148.906 183.750 L 146.250 183.750 146.250 199.531 M184.375 199.531 L 184.375 215.313 187.027 215.313 L 189.679 215.313 189.762 204.686 L 189.844 194.060 196.563 204.672 L 203.281 215.284 205.859 215.298 L 208.438 215.313 208.438 199.531 L 208.438 183.750 205.785 183.750 L 203.133 183.750 203.051 194.291 L 202.969 204.832 196.268 194.291 L 189.567 183.750 186.971 183.750 L 184.375 183.750 184.375 199.531 M222.220 184.453 C 220.039 190.256,211.250 214.697,211.250 214.958 C 211.250 215.196,212.169 215.313,214.037 215.313 L 216.823 215.313 217.969 211.875 L 219.114 208.438 224.792 208.438 L 230.469 208.438 231.677 211.875 L 232.884 215.313 235.661 215.313 C 237.188 215.313,238.438 215.204,238.438 215.070 C 238.438 214.871,233.265 200.539,228.234 186.797 L 227.118 183.750 224.801 183.750 C 222.685 183.750,222.462 183.811,222.220 184.453 M241.250 199.531 L 241.250 215.313 251.563 215.313 L 261.875 215.313 261.875 212.813 L 261.875 210.313 254.219 210.313 L 246.563 210.313 246.563 197.031 L 246.563 183.750 243.906 183.750 L 241.250 183.750 241.250 199.531 M265.625 199.531 L 265.625 215.313 268.281 215.313 L 270.938 215.313 270.938 199.531 L 270.938 183.750 268.281 183.750 L 265.625 183.750 265.625 199.531 M302.188 199.531 L 302.188 215.313 304.839 215.313 L 307.491 215.313 307.573 206.249 L 307.656 197.185 310.625 204.065 L 313.594 210.944 315.877 210.863 L 318.160 210.781 321.104 204.063 L 324.048 197.344 324.055 206.328 L 324.063 215.313 326.719 215.313 L 329.375 215.313 329.375 199.519 L 329.375 183.725 326.834 183.815 L 324.294 183.906 320.222 193.359 C 317.982 198.559,316.054 202.813,315.936 202.813 C 315.818 202.813,313.839 198.523,311.537 193.281 L 307.352 183.750 304.770 183.750 L 302.188 183.750 302.188 199.531 M170.526 189.357 C 174.601 191.207,175.703 204.613,172.090 208.384 C 168.792 211.826,163.731 210.443,162.306 205.709 C 161.789 203.990,161.725 195.562,162.213 193.444 C 163.083 189.668,166.985 187.750,170.526 189.357 M113.621 197.891 L 115.579 203.750 111.410 203.750 L 107.241 203.750 109.321 197.493 C 110.465 194.051,111.460 191.415,111.533 191.633 C 111.605 191.852,112.545 194.668,113.621 197.891 M227.059 197.891 L 229.016 203.750 224.848 203.750 L 220.679 203.750 222.759 197.493 C 223.903 194.051,224.898 191.415,224.970 191.633 C 225.042 191.852,225.982 194.668,227.059 197.891 " stroke="none" fill="#000000" fill-rule="evenodd"></path></g></svg>
