<svg id="svg" version="1.1" xmlns="http://www.w3.org/2000/svg" xmlns:xlink="http://www.w3.org/1999/xlink" width="400" height="400" viewBox="0, 0, 400,400"><g id="svgg"><path id="path0" d="M0.000 200.000 L 0.000 400.000 200.000 400.000 L 400.000 400.000 400.000 200.000 L 400.000 0.000 200.000 0.000 L 0.000 0.000 0.000 200.000 M391.563 199.844 L 391.563 391.250 200.156 391.250 L 8.750 391.250 8.750 199.844 L 8.750 8.438 200.156 8.438 L 391.563 8.438 391.563 199.844 M97.344 183.711 C 93.315 184.760,90.136 188.089,89.368 192.064 C 88.708 195.476,89.083 207.009,89.913 208.828 C 93.178 215.988,103.071 217.882,108.555 212.398 C 111.171 209.783,111.875 207.449,111.875 201.391 L 111.875 197.500 106.081 197.500 L 100.287 197.500 100.378 200.078 L 100.469 202.656 103.558 202.746 L 106.647 202.836 106.465 204.604 C 105.727 211.752,96.411 212.266,94.674 205.255 C 94.036 202.682,94.389 193.554,95.184 192.031 C 97.430 187.732,103.477 187.664,105.645 191.914 L 106.263 193.125 108.953 193.125 L 111.644 193.125 111.458 191.980 C 110.509 186.126,103.604 182.082,97.344 183.711 M148.594 183.711 C 144.565 184.760,141.386 188.089,140.618 192.064 C 139.958 195.476,140.333 207.009,141.163 208.828 C 145.155 217.582,158.148 217.883,162.046 209.313 C 163.769 205.525,163.531 192.027,161.686 188.879 C 159.239 184.704,153.494 182.436,148.594 183.711 M262.751 183.875 C 254.586 186.073,253.900 197.586,261.735 200.944 C 262.466 201.258,264.590 201.752,266.454 202.042 C 271.525 202.832,272.500 203.498,272.500 206.172 C 272.500 210.845,264.561 211.877,259.189 207.903 C 257.945 206.982,258.011 206.968,256.640 208.473 C 254.075 211.289,254.117 211.427,258.157 213.576 C 265.898 217.692,275.498 215.686,277.507 209.531 C 279.645 202.980,276.126 198.207,268.170 196.869 C 262.335 195.888,260.666 194.314,262.021 191.071 C 263.044 188.622,267.351 188.058,271.563 189.822 C 272.680 190.289,273.805 190.733,274.063 190.806 C 274.581 190.955,277.361 187.096,277.072 186.629 C 275.728 184.454,266.903 182.757,262.751 183.875 M116.950 199.453 L 117.031 215.156 127.266 215.239 L 137.500 215.321 137.500 212.817 L 137.500 210.313 129.844 210.313 L 122.188 210.313 122.188 197.031 L 122.188 183.750 119.528 183.750 L 116.869 183.750 116.950 199.453 M167.888 199.434 L 167.969 215.156 176.258 215.156 L 184.547 215.156 186.166 214.117 C 191.114 210.940,191.744 203.210,187.330 199.848 L 186.065 198.885 187.241 197.958 C 190.321 195.531,190.672 189.805,187.936 186.609 C 185.710 184.008,185.332 183.919,176.013 183.809 L 167.807 183.712 167.888 199.434 M202.652 184.141 C 202.574 184.355,200.045 191.325,197.031 199.629 C 194.016 207.933,191.632 214.859,191.731 215.020 C 191.831 215.181,193.087 215.313,194.524 215.313 L 197.136 215.313 198.281 211.875 L 199.427 208.438 205.156 208.438 L 210.886 208.438 211.736 211.016 C 213.212 215.495,213.027 215.313,216.102 215.313 C 217.558 215.313,218.750 215.204,218.750 215.070 C 218.750 214.871,213.578 200.539,208.546 186.797 L 207.431 183.750 205.112 183.750 C 203.540 183.750,202.747 183.876,202.652 184.141 M221.638 199.453 L 221.719 215.156 231.953 215.239 L 242.188 215.321 242.188 212.817 L 242.188 210.313 234.531 210.313 L 226.875 210.313 226.875 197.031 L 226.875 183.750 224.216 183.750 L 221.557 183.750 221.638 199.453 M246.013 199.453 L 246.094 215.156 248.672 215.247 L 251.250 215.338 251.250 199.544 L 251.250 183.750 248.591 183.750 L 245.932 183.750 246.013 199.453 M282.575 199.453 L 282.656 215.156 285.234 215.247 L 287.813 215.338 287.820 206.028 L 287.828 196.719 290.907 203.750 L 293.986 210.781 296.238 210.781 L 298.489 210.781 301.421 204.063 L 304.353 197.344 304.442 206.250 L 304.531 215.156 307.109 215.247 L 309.688 215.338 309.688 199.531 L 309.688 183.725 307.169 183.815 L 304.650 183.906 300.528 193.486 C 298.261 198.755,296.326 203.016,296.228 202.955 C 296.129 202.894,294.162 198.548,291.856 193.297 L 287.664 183.750 285.079 183.750 L 282.494 183.750 282.575 199.453 M182.842 189.146 C 184.711 190.414,184.969 193.425,183.359 195.177 C 182.093 196.556,180.867 196.858,176.484 196.868 L 173.125 196.875 173.125 192.627 L 173.125 188.379 177.578 188.487 C 181.191 188.575,182.184 188.699,182.842 189.146 M154.156 189.172 C 155.536 189.749,157.104 191.615,157.406 193.040 C 158.033 195.996,157.702 205.375,156.915 206.974 C 154.464 211.952,147.698 211.164,146.056 205.709 C 145.539 203.990,145.475 195.562,145.963 193.444 C 146.791 189.849,150.788 187.765,154.156 189.172 M207.371 197.891 L 209.329 203.750 205.160 203.750 L 200.991 203.750 203.071 197.493 C 204.215 194.051,205.210 191.415,205.283 191.633 C 205.355 191.852,206.295 194.668,207.371 197.891 M182.471 201.971 C 185.736 203.115,185.741 208.101,182.478 209.765 C 181.617 210.204,180.590 210.312,177.266 210.312 L 173.125 210.313 173.125 205.938 L 173.125 201.563 177.266 201.580 C 179.622 201.590,181.865 201.758,182.471 201.971 " stroke="none" fill="#000000" fill-rule="evenodd"></path></g></svg>
