<svg id="svg" version="1.1" xmlns="http://www.w3.org/2000/svg" xmlns:xlink="http://www.w3.org/1999/xlink" width="400" height="400" viewBox="0, 0, 400,400"><g id="svgg"><path id="path0" d="M0.000 200.000 L 0.000 400.000 200.000 400.000 L 400.000 400.000 400.000 200.000 L 400.000 0.000 200.000 0.000 L 0.000 0.000 0.000 200.000 M391.563 199.844 L 391.563 391.250 200.156 391.250 L 8.750 391.250 8.750 199.844 L 8.750 8.438 200.156 8.438 L 391.563 8.438 391.563 199.844 M158.541 184.311 C 152.602 186.428,151.406 189.031,151.406 199.844 L 151.406 207.969 152.281 209.751 C 156.949 219.256,171.831 217.383,173.723 207.052 C 174.155 204.691,174.165 194.732,173.737 192.418 C 172.539 185.938,165.105 181.972,158.541 184.311 M56.147 184.297 C 55.839 184.815,45.000 214.921,45.000 215.260 C 45.000 215.511,45.861 215.625,47.747 215.625 L 50.493 215.625 51.691 212.188 L 52.888 208.750 58.574 208.750 L 64.261 208.750 64.824 210.547 C 65.133 211.535,65.661 213.082,65.997 213.984 L 66.607 215.625 69.397 215.625 C 70.932 215.625,72.188 215.539,72.188 215.434 C 72.188 215.290,61.884 186.703,61.030 184.479 C 60.856 184.026,56.407 183.860,56.147 184.297 M73.492 195.859 L 73.594 207.656 74.495 209.609 C 78.383 218.027,91.341 218.106,95.265 209.736 L 96.094 207.969 96.186 196.016 L 96.278 184.063 93.608 184.063 L 90.938 184.063 90.931 194.922 C 90.924 204.781,90.871 205.898,90.350 207.044 C 88.307 211.541,81.936 211.765,79.616 207.422 C 78.923 206.125,78.904 205.836,78.807 195.078 L 78.707 184.063 76.049 184.063 L 73.391 184.063 73.492 195.859 M98.750 186.406 L 98.750 188.750 102.969 188.750 L 107.188 188.750 107.188 202.188 L 107.188 215.625 109.844 215.625 L 112.500 215.625 112.500 202.196 L 112.500 188.768 116.797 188.681 L 121.094 188.594 121.186 186.328 L 121.277 184.063 110.014 184.063 L 98.750 184.063 98.750 186.406 M123.750 199.844 L 123.750 215.625 126.406 215.625 L 129.063 215.625 129.063 208.906 L 129.063 202.188 135.000 202.188 L 140.938 202.188 140.938 208.906 L 140.938 215.625 143.594 215.625 L 146.250 215.625 146.250 199.844 L 146.250 184.063 143.594 184.063 L 140.938 184.063 140.938 190.625 L 140.938 197.188 135.000 197.188 L 129.063 197.188 129.063 190.625 L 129.063 184.063 126.406 184.063 L 123.750 184.063 123.750 199.844 M179.063 199.844 L 179.063 215.625 181.719 215.625 L 184.375 215.625 184.375 209.051 L 184.375 202.477 187.202 202.566 L 190.029 202.656 193.133 209.063 L 196.236 215.469 199.368 215.558 C 203.175 215.666,203.209 216.404,199.034 208.439 C 197.128 204.803,195.616 201.799,195.675 201.765 C 200.678 198.827,202.442 194.548,200.727 189.514 C 199.208 185.054,196.623 184.063,186.527 184.063 L 179.063 184.063 179.063 199.844 M205.625 199.844 L 205.625 215.625 208.281 215.625 L 210.938 215.625 210.938 199.844 L 210.938 184.063 208.281 184.063 L 205.625 184.063 205.625 199.844 M214.063 186.406 L 214.063 188.750 218.281 188.750 L 222.500 188.750 222.500 202.188 L 222.500 215.625 225.156 215.625 L 227.813 215.625 227.813 202.196 L 227.813 188.768 232.109 188.681 L 236.406 188.594 236.498 186.328 L 236.590 184.063 225.326 184.063 L 214.063 184.063 214.063 186.406 M243.647 184.297 C 243.339 184.815,232.500 214.921,232.500 215.260 C 232.500 215.511,233.361 215.625,235.247 215.625 L 237.993 215.625 239.191 212.188 L 240.388 208.750 246.074 208.750 L 251.761 208.750 252.324 210.547 C 252.633 211.535,253.161 213.082,253.497 213.984 L 254.107 215.625 256.897 215.625 C 258.432 215.625,259.688 215.539,259.688 215.434 C 259.688 215.290,249.384 186.703,248.530 184.479 C 248.356 184.026,243.907 183.860,243.647 184.297 M262.500 199.844 L 262.500 215.625 265.156 215.625 L 267.813 215.625 267.813 209.051 L 267.813 202.477 270.639 202.566 L 273.466 202.656 276.570 209.063 L 279.674 215.469 282.806 215.558 C 286.612 215.666,286.647 216.404,282.472 208.439 C 280.565 204.803,279.054 201.799,279.112 201.765 C 284.116 198.827,285.880 194.548,284.164 189.514 C 282.645 185.054,280.061 184.063,269.964 184.063 L 262.500 184.063 262.500 199.844 M289.375 199.844 L 289.375 215.625 292.031 215.625 L 294.688 215.625 294.688 199.844 L 294.688 184.063 292.031 184.063 L 289.375 184.063 289.375 199.844 M308.647 184.297 C 308.339 184.815,297.500 214.921,297.500 215.260 C 297.500 215.511,298.361 215.625,300.247 215.625 L 302.993 215.625 304.191 212.188 L 305.388 208.750 311.074 208.750 L 316.761 208.750 317.324 210.547 C 317.633 211.535,318.161 213.082,318.497 213.984 L 319.107 215.625 321.897 215.625 C 323.432 215.625,324.688 215.539,324.688 215.434 C 324.688 215.290,314.384 186.703,313.530 184.479 C 313.356 184.026,308.907 183.860,308.647 184.297 M327.500 199.844 L 327.500 215.625 330.152 215.625 L 332.804 215.625 332.887 205.037 L 332.969 194.448 339.688 205.033 L 346.406 215.618 348.984 215.622 L 351.563 215.625 351.563 199.844 L 351.563 184.063 348.910 184.063 L 346.258 184.063 346.176 194.604 L 346.094 205.145 339.393 194.604 L 332.692 184.063 330.096 184.063 L 327.500 184.063 327.500 199.844 M194.067 189.323 C 196.255 190.475,196.844 193.474,195.308 195.632 C 194.198 197.190,193.059 197.500,188.448 197.500 L 184.375 197.500 184.375 193.125 L 184.375 188.750 188.677 188.750 C 192.245 188.750,193.164 188.848,194.067 189.323 M277.505 189.323 C 279.692 190.475,280.282 193.474,278.745 195.632 C 277.636 197.190,276.496 197.500,271.885 197.500 L 267.813 197.500 267.813 193.125 L 267.813 188.750 272.114 188.750 C 275.683 188.750,276.602 188.848,277.505 189.323 M165.871 190.075 C 168.405 191.752,169.532 198.107,168.487 204.818 C 167.504 211.125,160.160 212.770,157.460 207.286 C 156.579 205.498,156.188 196.509,156.872 193.788 C 157.922 189.607,162.383 187.767,165.871 190.075 M62.500 203.822 C 62.500 203.954,60.688 204.063,58.473 204.063 L 54.447 204.063 56.296 198.359 C 57.313 195.223,58.227 192.445,58.327 192.188 C 58.476 191.804,62.500 203.024,62.500 203.822 M250.000 203.822 C 250.000 203.954,248.188 204.063,245.973 204.063 L 241.947 204.063 243.796 198.359 C 244.813 195.223,245.727 192.445,245.827 192.188 C 245.976 191.804,250.000 203.024,250.000 203.822 M315.000 203.822 C 315.000 203.954,313.188 204.063,310.973 204.063 L 306.947 204.063 308.796 198.359 C 309.813 195.223,310.727 192.445,310.827 192.188 C 310.976 191.804,315.000 203.024,315.000 203.822 " stroke="none" fill="#000000" fill-rule="evenodd"></path></g></svg>
