<svg id="svg" version="1.1" xmlns="http://www.w3.org/2000/svg" xmlns:xlink="http://www.w3.org/1999/xlink" width="400" height="400" viewBox="0, 0, 400,400"><g id="svgg"><path id="path0" d="M0.000 200.000 L 0.000 400.000 200.000 400.000 L 400.000 400.000 400.000 200.000 L 400.000 0.000 200.000 0.000 L 0.000 0.000 0.000 200.000 M391.563 199.844 L 391.563 391.250 200.156 391.250 L 8.750 391.250 8.750 199.844 L 8.750 8.438 200.156 8.438 L 391.563 8.438 391.563 199.844 M76.250 199.844 L 76.250 215.625 86.563 215.625 L 96.875 215.625 96.875 213.125 L 96.875 210.625 89.219 210.625 L 81.563 210.625 81.563 197.344 L 81.563 184.063 78.906 184.063 L 76.250 184.063 76.250 199.844 M100.625 199.844 L 100.625 215.625 103.281 215.625 L 105.938 215.625 105.938 199.844 L 105.938 184.063 103.281 184.063 L 100.625 184.063 100.625 199.844 M111.875 199.843 L 111.875 215.662 120.271 215.566 L 128.666 215.469 130.285 214.375 C 135.230 211.034,135.795 203.514,131.355 200.132 L 130.055 199.141 131.276 198.243 C 134.377 195.960,134.749 190.135,131.999 186.922 C 129.773 184.321,129.394 184.232,120.078 184.122 L 111.875 184.025 111.875 199.843 M138.750 199.844 L 138.750 215.625 149.063 215.625 L 159.375 215.625 159.375 213.125 L 159.375 210.625 151.719 210.625 L 144.063 210.625 144.063 206.406 L 144.063 202.188 150.625 202.188 L 157.188 202.188 157.188 199.688 L 157.188 197.188 150.625 197.188 L 144.063 197.188 144.063 193.125 L 144.063 189.063 151.719 189.063 L 159.375 189.063 159.375 186.563 L 159.375 184.063 149.063 184.063 L 138.750 184.063 138.750 199.844 M163.125 199.844 L 163.125 215.625 165.781 215.625 L 168.438 215.625 168.438 209.063 L 168.438 202.500 171.272 202.500 L 174.107 202.500 177.268 209.063 L 180.430 215.625 183.496 215.625 C 187.229 215.625,187.271 216.361,183.080 208.380 C 181.165 204.733,179.746 201.699,179.926 201.639 C 185.547 199.766,187.240 190.875,182.800 186.550 C 180.466 184.277,179.413 184.063,170.589 184.063 L 163.125 184.063 163.125 199.844 M185.938 186.406 L 185.938 188.750 190.156 188.750 L 194.375 188.750 194.375 202.188 L 194.375 215.625 197.031 215.625 L 199.688 215.625 199.688 202.188 L 199.688 188.750 204.063 188.750 L 208.438 188.750 208.438 186.406 L 208.438 184.063 197.188 184.063 L 185.938 184.063 185.938 186.406 M215.658 184.766 C 213.477 190.569,204.688 215.010,204.688 215.271 C 204.688 215.508,205.606 215.625,207.474 215.625 L 210.261 215.625 211.406 212.188 L 212.552 208.750 218.281 208.750 L 224.011 208.750 225.156 212.188 L 226.302 215.625 229.088 215.625 C 230.621 215.625,231.875 215.516,231.875 215.383 C 231.875 215.184,226.703 200.852,221.671 187.109 L 220.556 184.063 218.239 184.063 C 216.123 184.063,215.899 184.123,215.658 184.766 M234.688 199.844 L 234.688 215.625 237.344 215.625 L 240.000 215.625 240.000 209.063 L 240.000 202.500 242.835 202.500 L 245.669 202.500 248.831 209.063 L 251.992 215.625 255.059 215.625 C 258.792 215.625,258.834 216.361,254.643 208.380 C 252.727 204.733,251.308 201.699,251.489 201.639 C 257.109 199.766,258.802 190.875,254.362 186.550 C 252.029 184.277,250.976 184.063,242.152 184.063 L 234.688 184.063 234.688 199.844 M261.250 199.844 L 261.250 215.625 263.906 215.625 L 266.563 215.625 266.563 199.844 L 266.563 184.063 263.906 184.063 L 261.250 184.063 261.250 199.844 M280.345 184.766 C 278.164 190.569,269.375 215.010,269.375 215.271 C 269.375 215.508,270.294 215.625,272.162 215.625 L 274.948 215.625 276.094 212.188 L 277.239 208.750 282.969 208.750 L 288.698 208.750 289.844 212.188 L 290.989 215.625 293.776 215.625 C 295.309 215.625,296.563 215.516,296.563 215.383 C 296.563 215.184,291.390 200.852,286.359 187.109 L 285.243 184.063 282.926 184.063 C 280.810 184.063,280.587 184.123,280.345 184.766 M299.375 199.844 L 299.375 215.625 302.027 215.625 L 304.679 215.625 304.762 204.975 L 304.844 194.325 311.570 204.897 L 318.295 215.469 320.866 215.560 L 323.438 215.650 323.438 199.856 L 323.438 184.063 320.785 184.063 L 318.133 184.063 318.051 194.604 L 317.969 205.145 311.268 194.604 L 304.567 184.063 301.971 184.063 L 299.375 184.063 299.375 199.844 M126.051 189.181 C 129.765 190.733,129.003 196.115,124.959 196.897 C 124.208 197.042,122.152 197.166,120.391 197.174 L 117.188 197.188 117.188 192.969 L 117.188 188.750 121.104 188.750 C 123.725 188.750,125.361 188.892,126.051 189.181 M177.901 189.176 C 179.618 189.903,180.156 190.772,180.156 192.822 C 180.156 196.503,178.543 197.499,172.578 197.500 L 168.438 197.500 168.438 193.125 L 168.438 188.750 172.666 188.750 C 175.534 188.750,177.219 188.887,177.901 189.176 M249.463 189.176 C 251.181 189.903,251.719 190.772,251.719 192.822 C 251.719 196.503,250.105 197.499,244.141 197.500 L 240.000 197.500 240.000 193.125 L 240.000 188.750 244.229 188.750 C 247.097 188.750,248.781 188.887,249.463 189.176 M220.496 198.203 L 222.454 204.063 218.285 204.063 L 214.116 204.063 216.196 197.805 C 217.340 194.364,218.335 191.727,218.408 191.946 C 218.480 192.165,219.420 194.980,220.496 198.203 M285.184 198.203 L 287.141 204.063 282.973 204.063 L 278.804 204.063 280.884 197.805 C 282.028 194.364,283.023 191.727,283.095 191.946 C 283.167 192.165,284.107 194.980,285.184 198.203 M126.540 202.422 C 128.152 203.244,128.906 204.465,128.906 206.250 C 128.906 209.595,127.124 210.624,121.328 210.625 L 117.188 210.625 117.188 206.250 L 117.188 201.875 121.328 201.875 C 124.653 201.876,125.680 201.984,126.540 202.422 " stroke="none" fill="#000000" fill-rule="evenodd"></path></g></svg>
