<svg id="svg" version="1.1" xmlns="http://www.w3.org/2000/svg" xmlns:xlink="http://www.w3.org/1999/xlink" width="400" height="400" viewBox="0, 0, 400,400"><g id="svgg"><path id="path0" d="M0.000 200.000 L 0.000 400.000 200.000 400.000 L 400.000 400.000 400.000 200.000 L 400.000 0.000 200.000 0.000 L 0.000 0.000 0.000 200.000 M391.563 199.844 L 391.563 391.250 200.156 391.250 L 8.750 391.250 8.750 199.844 L 8.750 8.438 200.156 8.438 L 391.563 8.438 391.563 199.844 M95.719 184.002 C 89.600 186.183,88.281 188.909,88.281 199.375 L 88.281 207.031 89.189 208.997 C 93.578 218.502,108.607 217.379,110.477 207.407 L 110.695 206.250 107.918 206.250 L 105.142 206.250 104.533 207.380 C 101.936 212.204,95.126 210.863,93.736 205.255 C 93.099 202.682,93.451 193.554,94.247 192.031 C 96.516 187.686,103.176 187.785,105.001 192.191 C 105.388 193.125,105.390 193.125,108.048 193.125 L 110.707 193.125 110.521 191.980 C 109.514 185.775,102.042 181.747,95.719 184.002 M264.531 183.875 C 257.733 186.024,255.635 193.531,260.336 198.885 C 261.733 200.476,264.029 201.425,267.969 202.038 C 272.304 202.712,273.599 203.331,274.087 204.960 C 275.711 210.379,266.727 212.329,260.702 207.865 C 259.528 206.995,259.469 207.023,257.449 209.436 L 256.168 210.966 256.870 211.713 C 258.882 213.855,264.020 215.613,268.294 215.620 C 275.687 215.634,279.478 212.404,279.477 206.094 C 279.476 200.728,276.623 198.027,269.732 196.869 C 263.898 195.888,262.228 194.314,263.583 191.071 C 264.606 188.622,268.914 188.058,273.125 189.822 C 274.242 190.289,275.367 190.733,275.625 190.806 C 276.143 190.955,278.924 187.096,278.635 186.629 C 277.309 184.484,268.218 182.709,264.531 183.875 M116.000 199.280 C 112.893 207.822,110.421 214.923,110.507 215.061 C 110.592 215.199,111.837 215.313,113.274 215.313 L 115.886 215.313 117.034 211.868 L 118.181 208.424 123.979 208.509 L 129.776 208.594 130.904 211.875 L 132.031 215.156 134.766 215.247 C 136.270 215.296,137.500 215.222,137.500 215.082 C 137.500 214.873,132.424 200.801,127.296 186.797 L 126.181 183.750 123.914 183.750 L 121.648 183.750 116.000 199.280 M140.388 199.453 L 140.469 215.156 143.047 215.247 L 145.625 215.338 145.625 209.231 L 145.625 203.125 150.301 203.125 C 159.311 203.125,163.492 199.219,162.479 191.750 C 161.618 185.406,158.610 183.757,147.888 183.753 L 140.307 183.750 140.388 199.453 M166.325 199.453 L 166.406 215.156 168.984 215.247 L 171.563 215.338 171.563 199.544 L 171.563 183.750 168.903 183.750 L 166.244 183.750 166.325 199.453 M174.439 186.016 L 174.531 188.281 178.669 188.368 L 182.806 188.456 182.887 201.806 L 182.969 215.156 185.547 215.247 L 188.125 215.338 188.125 201.888 L 188.125 188.438 192.500 188.438 L 196.875 188.438 196.875 186.094 L 196.875 183.750 185.611 183.750 L 174.348 183.750 174.439 186.016 M198.812 199.280 C 195.706 207.822,193.234 214.923,193.319 215.061 C 193.405 215.199,194.650 215.313,196.086 215.313 L 198.698 215.313 199.846 211.868 L 200.994 208.424 206.791 208.509 L 212.589 208.594 213.716 211.875 L 214.844 215.156 217.578 215.247 C 219.082 215.296,220.313 215.222,220.313 215.082 C 220.313 214.873,215.236 200.801,210.109 186.797 L 208.993 183.750 206.727 183.750 L 204.461 183.750 198.812 199.280 M223.200 199.453 L 223.281 215.156 233.516 215.239 L 243.750 215.321 243.750 212.817 L 243.750 210.313 236.094 210.313 L 228.438 210.313 228.438 197.031 L 228.438 183.750 225.778 183.750 L 223.119 183.750 223.200 199.453 M247.575 199.453 L 247.656 215.156 250.234 215.247 L 252.813 215.338 252.813 199.544 L 252.813 183.750 250.153 183.750 L 247.494 183.750 247.575 199.453 M284.138 199.453 L 284.219 215.156 286.792 215.247 L 289.366 215.338 289.448 206.069 L 289.531 196.801 292.622 203.882 L 295.712 210.963 297.886 210.872 L 300.060 210.781 303.077 203.826 L 306.094 196.870 306.177 206.091 L 306.259 215.313 308.755 215.313 L 311.250 215.313 311.250 199.531 L 311.250 183.750 308.807 183.750 L 306.365 183.750 302.193 193.424 C 299.899 198.745,297.930 203.041,297.817 202.971 C 297.704 202.901,295.725 198.548,293.419 193.297 L 289.227 183.750 286.642 183.750 L 284.057 183.750 284.138 199.453 M155.181 189.387 C 157.818 190.664,158.136 194.508,155.798 196.849 L 154.679 197.969 150.152 198.070 L 145.625 198.171 145.625 193.461 L 145.625 188.750 149.745 188.750 C 153.252 188.750,154.061 188.845,155.181 189.387 M125.958 197.109 C 127.028 200.332,127.969 203.145,128.048 203.359 C 128.159 203.660,127.215 203.750,123.967 203.750 L 119.741 203.750 121.819 197.500 C 122.962 194.063,123.922 191.250,123.954 191.250 C 123.985 191.250,124.887 193.887,125.958 197.109 M208.770 197.109 C 209.841 200.332,210.782 203.145,210.861 203.359 C 210.971 203.660,210.028 203.750,206.779 203.750 L 202.554 203.750 204.631 197.500 C 205.774 194.063,206.735 191.250,206.766 191.250 C 206.797 191.250,207.699 193.887,208.770 197.109 " stroke="none" fill="#000000" fill-rule="evenodd"></path></g></svg>
